<svg width="140" height="13" viewBox="0 0 140 13" fill="none" xmlns="http://www.w3.org/2000/svg">
<path d="M5.57812 0.751953C6.44857 0.75651 7.22559 0.895508 7.90918 1.16895C8.59733 1.43783 9.13509 1.81836 9.52246 2.31055C9.90983 2.79818 10.1035 3.36328 10.1035 4.00586C10.1035 4.60742 9.93945 5.1429 9.61133 5.6123C9.28776 6.07715 8.83203 6.45085 8.24414 6.7334C7.66081 7.01139 6.98633 7.18229 6.2207 7.24609V9.65234H11.2109V10.7324H0V9.65234H4.93555V7.24609C4.17448 7.18229 3.50228 7.01139 2.91895 6.7334C2.33561 6.45085 1.87988 6.07715 1.55176 5.6123C1.22819 5.1429 1.06641 4.60742 1.06641 4.00586C1.06641 3.36328 1.26009 2.79818 1.64746 2.31055C2.03483 1.81836 2.57031 1.43783 3.25391 1.16895C3.9375 0.895508 4.71224 0.75651 5.57812 0.751953ZM5.57812 1.81836C4.95378 1.8138 4.39323 1.90267 3.89648 2.08496C3.4043 2.2627 3.01921 2.52018 2.74121 2.85742C2.46322 3.1901 2.32422 3.57292 2.32422 4.00586C2.32422 4.45703 2.46322 4.85124 2.74121 5.18848C3.01921 5.52572 3.4043 5.78548 3.89648 5.96777C4.38867 6.15007 4.94922 6.24349 5.57812 6.24805C6.21159 6.24349 6.77441 6.15007 7.2666 5.96777C7.76335 5.78548 8.15072 5.52572 8.42871 5.18848C8.70671 4.85124 8.8457 4.45703 8.8457 4.00586C8.8457 3.57292 8.70671 3.1901 8.42871 2.85742C8.15072 2.52018 7.76335 2.2627 7.2666 2.08496C6.76986 1.90267 6.20703 1.8138 5.57812 1.81836ZM21.9844 3.85547H13.5762V0.191406H14.8477V2.80273H21.9844V3.85547ZM23.2969 5.97461H12.0859V4.93555H23.2969V5.97461ZM21.8887 9.95312H14.7793V11.0879H22.3125V12.1133H13.4805V8.99609H20.6035V7.9707H13.4531V6.95898H21.8887V9.95312ZM28.1914 0.888672C28.8294 0.884115 29.4014 1.00488 29.9072 1.25098C30.4131 1.49707 30.8073 1.84342 31.0898 2.29004C31.377 2.7321 31.5228 3.23568 31.5273 3.80078C31.5228 4.36589 31.377 4.87174 31.0898 5.31836C30.8073 5.76042 30.4131 6.10677 29.9072 6.35742C29.4014 6.60352 28.8294 6.72656 28.1914 6.72656C27.5534 6.72656 26.9792 6.60352 26.4688 6.35742C25.9629 6.10677 25.5664 5.76042 25.2793 5.31836C24.9922 4.87174 24.8509 4.36589 24.8555 3.80078C24.8509 3.23568 24.9922 2.7321 25.2793 2.29004C25.5664 1.84342 25.9629 1.49707 26.4688 1.25098C26.9792 1.00488 27.5534 0.884115 28.1914 0.888672ZM28.1914 2.00977C27.7949 2.00977 27.4395 2.08496 27.125 2.23535C26.8151 2.38118 26.5713 2.59082 26.3936 2.86426C26.2204 3.13314 26.1361 3.44531 26.1406 3.80078C26.1361 4.15625 26.2204 4.4707 26.3936 4.74414C26.5713 5.01302 26.8151 5.22266 27.125 5.37305C27.4395 5.51888 27.7949 5.5918 28.1914 5.5918C28.5879 5.5918 28.9411 5.51888 29.251 5.37305C29.5654 5.22266 29.8115 5.01302 29.9893 4.74414C30.167 4.4707 30.2559 4.15625 30.2559 3.80078C30.2559 3.44531 30.167 3.13314 29.9893 2.86426C29.8115 2.59082 29.5654 2.38118 29.251 2.23535C28.9411 2.08496 28.5879 2.00977 28.1914 2.00977ZM34.3301 12.291H33.0312V0.0136719H34.3301V12.291ZM24.2676 8.57227C25.7806 8.57227 27.1934 8.5472 28.5059 8.49707C29.8229 8.44238 31.0762 8.33073 32.2656 8.16211L32.3613 9.10547C31.14 9.34245 29.8981 9.49284 28.6357 9.55664C27.3779 9.62044 25.9766 9.65234 24.4316 9.65234L24.2676 8.57227ZM49.875 8.92773H48.5762V0.0273438H49.875V8.92773ZM50.2441 12.0039H41.8633V8.02539H43.1758V10.9512H50.2441V12.0039ZM43.2305 0.847656C43.8411 0.847656 44.3926 0.977539 44.8848 1.2373C45.3815 1.49707 45.7712 1.8571 46.0537 2.31738C46.3408 2.77767 46.4844 3.29948 46.4844 3.88281C46.4844 4.47526 46.3408 5.00391 46.0537 5.46875C45.7712 5.92904 45.3815 6.28906 44.8848 6.54883C44.3926 6.80404 43.8411 6.93164 43.2305 6.93164C42.6198 6.93164 42.0661 6.80404 41.5693 6.54883C41.0726 6.28906 40.6807 5.92676 40.3936 5.46191C40.1064 4.99707 39.9629 4.4707 39.9629 3.88281C39.9629 3.29948 40.1064 2.77767 40.3936 2.31738C40.6807 1.8571 41.0726 1.49707 41.5693 1.2373C42.0661 0.977539 42.6198 0.847656 43.2305 0.847656ZM43.2305 1.98242C42.8522 1.98242 42.5104 2.06445 42.2051 2.22852C41.9043 2.38802 41.6673 2.61133 41.4941 2.89844C41.321 3.18555 41.2344 3.51367 41.2344 3.88281C41.2344 4.26107 41.3187 4.59603 41.4873 4.8877C41.6605 5.1748 41.8975 5.39811 42.1982 5.55762C42.5036 5.71712 42.8477 5.79688 43.2305 5.79688C43.6042 5.79688 43.9414 5.71712 44.2422 5.55762C44.543 5.39811 44.7799 5.17253 44.9531 4.88086C45.1263 4.58919 45.2129 4.25651 45.2129 3.88281C45.2129 3.51823 45.1263 3.19238 44.9531 2.90527C44.7799 2.61361 44.5407 2.38802 44.2354 2.22852C43.9346 2.06445 43.5996 1.98242 43.2305 1.98242ZM62.0293 9.05078H60.7305V5.86523H57.6885C57.3968 6.21615 57.0368 6.48958 56.6084 6.68555C56.18 6.87695 55.7129 6.97266 55.207 6.97266C54.5964 6.97266 54.0472 6.84049 53.5596 6.57617C53.0719 6.31185 52.6891 5.94499 52.4111 5.47559C52.1331 5.00618 51.9941 4.47526 51.9941 3.88281C51.9941 3.28581 52.1331 2.7526 52.4111 2.2832C52.6891 1.80924 53.0719 1.4401 53.5596 1.17578C54.0472 0.906901 54.5964 0.770182 55.207 0.765625C55.7083 0.770182 56.1709 0.870443 56.5947 1.06641C57.0231 1.25781 57.3831 1.52669 57.6748 1.87305H60.7305V0.0273438H62.0293V9.05078ZM62.3574 12.0039H54.0723V8.10742H55.3711V10.9512H62.3574V12.0039ZM55.207 1.92773C54.8288 1.92773 54.4893 2.00977 54.1885 2.17383C53.8923 2.33789 53.6598 2.56803 53.4912 2.86426C53.3226 3.16048 53.2383 3.5 53.2383 3.88281C53.2383 4.26562 53.3226 4.60514 53.4912 4.90137C53.6598 5.19303 53.8923 5.4209 54.1885 5.58496C54.4893 5.74447 54.8288 5.82422 55.207 5.82422C55.5762 5.82422 55.9066 5.74447 56.1982 5.58496C56.4945 5.4209 56.7269 5.19076 56.8955 4.89453C57.0641 4.59831 57.1484 4.26107 57.1484 3.88281C57.1484 3.50456 57.0641 3.16732 56.8955 2.87109C56.7269 2.57031 56.4945 2.33789 56.1982 2.17383C55.902 2.00977 55.5716 1.92773 55.207 1.92773ZM58.249 2.92578C58.3447 3.24023 58.3926 3.55924 58.3926 3.88281C58.3926 4.20638 58.347 4.51628 58.2559 4.8125H60.7305V2.92578H58.249ZM69.4941 0.21875C70.4147 0.21875 71.2008 0.300781 71.8525 0.464844C72.5088 0.624349 73.0078 0.861328 73.3496 1.17578C73.696 1.49023 73.8691 1.87305 73.8691 2.32422C73.8691 2.77539 73.696 3.16048 73.3496 3.47949C73.0078 3.79395 72.5088 4.0332 71.8525 4.19727C71.2008 4.36133 70.4147 4.44336 69.4941 4.44336C68.5736 4.44336 67.7852 4.36133 67.1289 4.19727C66.4772 4.0332 65.9782 3.79395 65.6318 3.47949C65.29 3.16048 65.1191 2.77539 65.1191 2.32422C65.1191 1.87305 65.29 1.49023 65.6318 1.17578C65.9782 0.861328 66.4772 0.624349 67.1289 0.464844C67.7852 0.300781 68.5736 0.21875 69.4941 0.21875ZM69.4941 1.17578C68.5189 1.17578 67.7692 1.27604 67.2451 1.47656C66.721 1.67708 66.4635 1.95964 66.4727 2.32422C66.4681 2.69792 66.7233 2.98275 67.2383 3.17871C67.7578 3.37467 68.5098 3.47266 69.4941 3.47266C70.474 3.47266 71.2236 3.37467 71.7432 3.17871C72.2673 2.98275 72.5293 2.69792 72.5293 2.32422C72.5293 1.95964 72.265 1.67708 71.7363 1.47656C71.2122 1.27604 70.4648 1.17578 69.4941 1.17578ZM75.0859 6.23438H63.916V5.19531H75.0859V6.23438ZM73.6777 10.0488H66.541V11.1426H74.0195V12.1406H65.2695V9.10547H72.3926V8.14844H65.2559V7.17773H73.6777V10.0488ZM85.6406 6.80859H79.9121V1.09375H85.6406V6.80859ZM81.1836 5.7832H84.3691V2.14648H81.1836V5.7832ZM89.0586 3.66406H90.8359V4.75781H89.0586V8.98242H87.7598V0H89.0586V3.66406ZM89.5781 12.0039H81.293V8.12109H82.5918V10.9512H89.5781V12.0039ZM102.977 5.89258H101.076V12.25H99.7773V0.0136719H101.076V4.82617H102.977V5.89258ZM93.2832 8.09375C95.1517 8.09375 96.9655 7.91146 98.7246 7.54688L98.875 8.64062C97.8997 8.83659 96.9313 8.97559 95.9697 9.05762C95.0127 9.13509 94.026 9.17383 93.0098 9.17383H91.998V1.20312H93.2832V8.09375ZM114.844 10.7461H103.633V9.66602H108.568V7.15039H104.918V0.847656H106.217V2.95312H112.232V0.847656H113.518V7.15039H109.854V9.66602H114.844V10.7461ZM112.232 6.09766V4.00586H106.217V6.09766H112.232ZM119.465 3.36328C119.465 4.02865 119.558 4.68717 119.745 5.33887C119.932 5.986 120.21 6.57845 120.579 7.11621C120.948 7.65397 121.397 8.08464 121.926 8.4082L121.201 9.40625C120.645 9.07357 120.169 8.62012 119.772 8.0459C119.376 7.46712 119.071 6.81087 118.856 6.07715C118.624 6.87467 118.296 7.58789 117.872 8.2168C117.453 8.84115 116.954 9.32878 116.375 9.67969L115.568 8.70898C116.129 8.37174 116.607 7.92513 117.004 7.36914C117.4 6.80859 117.699 6.1888 117.899 5.50977C118.104 4.82617 118.207 4.12891 118.207 3.41797V1.13477H119.465V3.36328ZM126.273 12.2637H125.029V0.0136719H126.273V12.2637ZM123.73 11.6621H122.5V5.40039H120.6V4.32031H122.5V0.246094H123.73V11.6621ZM139.043 10.7324H127.832V9.65234H130.512V6.45312C130.001 6.17057 129.605 5.81283 129.322 5.37988C129.04 4.94694 128.898 4.46159 128.898 3.92383C128.898 3.29036 129.09 2.7321 129.473 2.24902C129.86 1.76595 130.396 1.39225 131.079 1.12793C131.763 0.859049 132.54 0.724609 133.41 0.724609C134.285 0.724609 135.064 0.859049 135.748 1.12793C136.436 1.39225 136.972 1.76595 137.354 2.24902C137.742 2.7321 137.936 3.29036 137.936 3.92383C137.936 4.45703 137.799 4.93783 137.525 5.36621C137.252 5.79004 136.865 6.14323 136.363 6.42578V9.65234H139.043V10.7324ZM133.41 1.76367C132.772 1.76367 132.207 1.85254 131.715 2.03027C131.223 2.20345 130.84 2.4541 130.566 2.78223C130.293 3.10579 130.156 3.48633 130.156 3.92383C130.156 4.35677 130.293 4.7373 130.566 5.06543C130.84 5.39355 131.223 5.64876 131.715 5.83105C132.207 6.00879 132.772 6.09766 133.41 6.09766C134.044 6.09766 134.606 6.00879 135.099 5.83105C135.595 5.64876 135.983 5.39355 136.261 5.06543C136.539 4.7373 136.678 4.35677 136.678 3.92383C136.678 3.49089 136.539 3.11035 136.261 2.78223C135.987 2.4541 135.602 2.20345 135.105 2.03027C134.613 1.85254 134.048 1.76367 133.41 1.76367ZM135.051 9.65234V6.9248C134.554 7.04785 134.007 7.10938 133.41 7.10938C132.836 7.10938 132.298 7.05013 131.797 6.93164V9.65234H135.051Z" fill="#868DA6"/>
</svg>
