<svg width="17" height="17" viewBox="0 0 17 17" fill="none" xmlns="http://www.w3.org/2000/svg">
<path d="M8.50016 13.4583L2.8335 13.4583M14.1668 3.54167L12.0418 3.54167M14.1668 13.4583L11.3335 13.4583M9.2085 3.54167L2.8335 3.54167M4.9585 8.5L2.8335 8.5M14.1668 8.5L7.79183 8.5" stroke="#FF83A2" stroke-linecap="round"/>
<path d="M11.3333 13.4583C11.3333 12.6759 10.6991 12.0417 9.91667 12.0417C9.13426 12.0417 8.5 12.6759 8.5 13.4583C8.5 14.2407 9.13426 14.875 9.91667 14.875C10.6991 14.875 11.3333 14.2407 11.3333 13.4583Z" stroke="#FF83A2" stroke-linecap="round"/>
<path d="M7.79183 8.5C7.79183 7.7176 7.15757 7.08334 6.37516 7.08334C5.59276 7.08334 4.9585 7.7176 4.9585 8.5C4.9585 9.28241 5.59276 9.91667 6.37516 9.91667C7.15757 9.91667 7.79183 9.28241 7.79183 8.5Z" stroke="#FF83A2" stroke-linecap="round"/>
<path d="M12.0418 3.54167C12.0418 2.75926 11.4076 2.125 10.6252 2.125C9.84276 2.125 9.2085 2.75926 9.2085 3.54167C9.2085 4.32407 9.84276 4.95833 10.6252 4.95833C11.4076 4.95833 12.0418 4.32407 12.0418 3.54167Z" stroke="#FF83A2" stroke-linecap="round"/>
</svg>
