<svg width="54" height="26" viewBox="0 0 54 26" fill="none" xmlns="http://www.w3.org/2000/svg">
<g clip-path="url(#clip0_316_2354)">
<path d="M22.9847 8.63678C21.0043 8.47269 19.367 7.24952 17.6829 6.35451L17.4958 6.53351C18.6341 7.36885 20.0531 8.18927 21.4098 8.66661C21.6748 8.75611 22.7196 8.96495 22.8132 9.02462C22.9691 9.12903 22.9067 9.51687 22.8911 9.68095C22.0335 9.90471 21.0823 10.1583 20.287 10.5312C19.944 10.6953 18.8992 11.3069 18.6653 11.5605C18.5562 11.6798 18.4938 11.7395 18.525 11.9185C18.6965 11.9483 18.7901 11.9185 18.946 11.829C19.3982 11.6052 19.8972 11.113 20.443 10.8594C21.1603 10.5163 22.0023 10.3075 22.7664 10.0688C22.9847 10.0986 22.8755 10.6953 22.9067 10.8892C23.0003 11.5008 23.203 12.0826 23.4993 12.6345C23.5772 12.7687 24.0762 13.3803 24.0139 13.44C21.4721 14.0217 18.8057 14.7378 16.4199 15.7372C15.3595 16.1847 14.0808 16.7217 13.4259 17.6614L13.2388 17.7211C12.2564 16.0355 11.929 14.1112 12.4747 12.2168C12.6463 11.6052 13.0829 10.8892 13.2076 10.3373C13.4259 9.21853 12.4591 7.83127 12.1629 6.69759C10.4476 0.343031 14.8137 -1.07407 20.3338 0.701035C22.3298 1.34246 24.3725 2.43138 25.8695 3.8634C24.0294 4.78824 23.203 6.72743 22.9847 8.62186V8.63678Z" fill="url(#paint0_linear_316_2354)"/>
<path d="M31.2648 10.054C32.216 10.3821 33.1984 10.6506 34.0872 11.1429C34.3523 11.292 35.21 11.9782 35.4127 11.9335C35.5062 11.9036 35.5842 11.7843 35.5062 11.665C35.4283 11.5606 34.3211 10.8744 34.1184 10.755C33.2296 10.2777 32.2472 9.99429 31.2804 9.69595V9.14403C31.3428 8.97995 32.4967 8.72636 32.7774 8.62194C33.5727 8.32361 35.7557 7.27943 36.3171 6.75734C36.4262 6.66784 36.5042 6.63801 36.473 6.459C36.4262 6.25017 36.2079 6.41425 36.0988 6.459C35.2256 6.86176 34.4147 7.5181 33.4635 7.95069C33.1672 8.08494 31.3896 8.78603 31.2648 8.65178C31.2025 6.69767 30.3604 4.34082 28.0994 3.93806C27.959 3.80381 30.0641 2.40163 30.2513 2.29721C35.4595 -0.790564 44.2541 -1.90932 41.8683 6.81701C41.5409 8.02527 40.6053 9.17386 40.9016 10.4269C41.0887 11.2175 41.5721 11.9633 41.7436 12.8285C42.0555 14.4395 41.7124 16.319 40.7612 17.6914C40.6209 17.751 40.387 17.3184 40.2466 17.1991C39.5917 16.6472 38.5781 16.1698 37.7829 15.8268C35.3191 14.7677 32.5747 14.0815 29.9706 13.4252C29.8146 13.3058 29.9238 13.3357 29.9706 13.2462C30.0641 13.0672 30.2668 12.918 30.3604 12.7241C30.8438 11.8887 31.1245 11.0235 31.2804 10.0838L31.2648 10.054Z" fill="url(#paint1_linear_316_2354)"/>
<path d="M52.6434 15.961C52.8617 16.1549 54.1715 17.7063 53.9844 17.8853C51.0996 16.8112 48.0277 17.3333 45.2521 18.4372C44.909 18.7952 45.8446 22.9122 45.8914 23.7028C45.907 24.0459 45.9538 25.8508 45.6575 25.9702C44.0202 23.1956 40.8703 21.5846 38.1883 19.8394C38.1103 19.7946 37.5489 19.6156 38.0167 19.5559C38.2818 19.5261 38.5469 19.5858 38.8276 19.5261C40.9015 19.183 41.9775 17.0947 42.3049 15.2748C42.5232 14.0815 42.4609 12.9478 42.071 11.7992C45.4704 12.5152 50.0705 13.5445 52.6434 15.9312V15.961Z" fill="url(#paint2_linear_316_2354)"/>
<path d="M12.0069 11.8439C10.8998 14.7676 12.1784 19.8095 16.2015 19.6305C14.0029 21.1371 11.3676 22.4647 9.54314 24.3889C9.07534 24.8812 8.71669 25.4629 8.29567 25.9999C7.67193 23.4641 8.96618 20.9879 8.84144 18.4371C6.73633 17.6615 4.49087 17.0499 2.21424 17.3631L0.015564 17.8405C0.951169 15.8416 3.05628 14.6333 5.06783 13.7682C7.25091 12.8433 9.68348 12.2616 12.0225 11.829L12.0069 11.8439Z" fill="url(#paint3_linear_316_2354)"/>
<path d="M26.6804 4.29609C32.4343 3.58009 31.873 15.439 26.1658 14.0069C21.7216 12.8882 23.1874 4.72868 26.6804 4.29609Z" fill="url(#paint4_linear_316_2354)"/>
<path d="M28.2865 14.4246L29.4248 13.813C31.218 14.2605 33.0269 14.708 34.7733 15.2898C35.974 15.6925 39.311 16.8262 40.0127 17.7659C40.6365 18.6013 39.1395 19.004 38.4846 19.0637C35.2567 19.3322 31.4052 17.572 29.1285 15.4538C28.9882 15.3345 28.2085 14.529 28.2865 14.4246Z" fill="url(#paint5_linear_316_2354)"/>
<path d="M25.7759 14.4246C25.8071 14.5588 25.7447 14.5737 25.6823 14.6483C24.2789 16.6024 19.7101 18.8698 17.2619 19.0488C16.186 19.1383 14.3927 19.2129 13.8158 18.1687C13.6598 17.4676 16.529 16.2743 17.106 16.0505C18.2131 15.6179 19.4762 15.2152 20.6145 14.8721C21.4253 14.6334 23.624 13.9025 24.3413 13.8876C24.8715 13.8876 25.2301 14.4246 25.7759 14.4246Z" fill="url(#paint6_linear_316_2354)"/>
</g>
<defs>
<linearGradient id="paint0_linear_316_2354" x1="18.8212" y1="17.7062" x2="18.8212" y2="-5.58721e-05" gradientUnits="userSpaceOnUse">
<stop stop-color="#FCE6EA"/>
<stop offset="1" stop-color="#F1B3C1"/>
</linearGradient>
<linearGradient id="paint1_linear_316_2354" x1="35.1944" y1="17.6764" x2="35.1944" y2="2.69854e-05" gradientUnits="userSpaceOnUse">
<stop stop-color="#FCE6EA"/>
<stop offset="1" stop-color="#F1B3C1"/>
</linearGradient>
<linearGradient id="paint2_linear_316_2354" x1="45.9226" y1="26" x2="45.9226" y2="11.8439" gradientUnits="userSpaceOnUse">
<stop stop-color="#FCE6EA"/>
<stop offset="1" stop-color="#F1B3C1"/>
</linearGradient>
<linearGradient id="paint3_linear_316_2354" x1="8.09295" y1="25.9999" x2="8.09295" y2="11.8439" gradientUnits="userSpaceOnUse">
<stop stop-color="#FCE6EA"/>
<stop offset="1" stop-color="#F1B3C1"/>
</linearGradient>
<linearGradient id="paint4_linear_316_2354" x1="27.0702" y1="14.1263" x2="27.0702" y2="4.26626" gradientUnits="userSpaceOnUse">
<stop stop-color="#FCE6EA"/>
<stop offset="1" stop-color="#F1B3C1"/>
</linearGradient>
<linearGradient id="paint5_linear_316_2354" x1="34.2276" y1="19.0786" x2="34.2276" y2="13.813" gradientUnits="userSpaceOnUse">
<stop stop-color="#FCE6EA"/>
<stop offset="1" stop-color="#F1B3C1"/>
</linearGradient>
<linearGradient id="paint6_linear_316_2354" x1="19.8036" y1="19.0935" x2="19.8036" y2="13.8876" gradientUnits="userSpaceOnUse">
<stop stop-color="#FCE6EA"/>
<stop offset="1" stop-color="#F1B3C1"/>
</linearGradient>
<clipPath id="clip0_316_2354">
<rect width="54" height="26" fill="white"/>
</clipPath>
</defs>
</svg>
