<svg width="93" height="13" viewBox="0 0 93 13" fill="none" xmlns="http://www.w3.org/2000/svg">
<g clip-path="url(#clip0_367_1633)">
<path d="M35.6719 5.36273C37.0557 5.36273 37.1484 5.29652 37.294 5.29652C37.5456 5.29652 37.7707 5.48852 37.7707 5.77321C37.7707 6.17045 37.2808 7.45485 37.1351 7.74616C36.9299 8.1434 36.7379 8.31553 36.2744 8.31553C36.0228 8.31553 35.4468 8.18974 34.1955 8.18974H31.2229C29.8392 8.18974 29.7465 8.25595 29.6008 8.25595C29.3492 8.25595 29.1241 8.06395 29.1241 7.77926C29.1241 7.38202 29.6141 6.09762 29.7597 5.80631C29.965 5.40908 30.157 5.23694 30.6204 5.23694C30.872 5.23694 31.448 5.36273 32.6993 5.36273H35.6719Z" fill="#F1B3C1"/>
<path d="M1.20495 4.31676C1.20495 1.85388 0 2.87346 0 1.88699C0 1.01306 1.23806 0.900513 1.87364 0.900513C2.20467 0.900513 2.52246 0.933616 2.86011 0.946857C3.1779 0.97996 3.50893 1.01306 3.82672 1.01306C4.33651 1.01306 4.8463 0.97996 5.36933 0.946857C5.87912 0.933616 6.40215 0.900513 6.91194 0.900513C8.70613 0.900513 10.7916 1.69499 10.7916 3.80697C10.7916 4.76034 10.3282 5.68061 9.44102 6.11095C9.29537 6.1904 9.18944 6.23674 9.18944 6.42874C9.18944 6.66708 9.39467 6.73329 9.58667 6.81274C10.6989 7.22322 11.1889 7.95811 11.414 9.67285C11.606 11.1493 12.6388 10.2621 12.6388 11.2287C12.6388 11.8312 11.9105 12.4668 10.1097 12.4668C7.56738 12.4668 7.24959 11.0036 6.75966 8.90486C6.58753 8.17659 6.31608 7.46156 5.44216 7.46156C5.09127 7.46156 4.96547 7.5079 4.96547 8.50762C4.96547 8.97106 4.99858 9.60664 5.07802 10.0502C5.20382 10.7785 6.01815 10.56 6.01815 11.3214C6.01815 11.8908 5.62092 12.3211 3.04549 12.3211C2.27088 12.3211 0.0198619 12.3211 0.0198619 11.1625C0.0198619 10.3349 1.21158 10.9109 1.21158 8.84527V4.31676H1.20495ZM4.89265 5.01192C4.85954 5.4224 4.7801 5.7733 5.30313 5.7733C6.33594 5.7733 6.66698 5.20392 6.66698 4.21745C6.66698 3.43621 6.47498 2.64174 5.55471 2.64174C4.96547 2.64174 4.98533 3.00587 4.95223 3.50242L4.88603 5.01192H4.89265Z" fill="#F1B3C1"/>
<path d="M19.5308 1.00639C21.656 1.00639 21.9606 0.688599 22.2188 0.688599C23.1258 0.688599 23.5032 2.24445 23.5032 2.94623C23.5032 3.46926 23.2979 4.0916 22.6756 4.0916C21.4177 4.0916 22.4373 2.56886 19.4182 2.56886C17.6572 2.56886 17.8293 2.88665 17.8293 4.71394C17.8293 5.63421 17.8756 5.66731 18.8489 5.66731C20.0538 5.66731 19.1534 3.90623 20.2789 3.90623C21.1992 3.90623 21.2654 5.70042 21.2654 6.32276C21.2654 6.97158 21.1529 8.87832 20.1995 8.87832C19.2461 8.87832 20.1995 7.20992 18.5973 7.20992C17.9286 7.20992 17.9485 7.8124 17.9485 8.32219C17.9485 10.6394 18.1074 10.5335 19.7758 10.5335C23.0331 10.5335 22.1128 8.2957 23.4171 8.2957C23.9269 8.2957 24.1785 8.86508 24.1785 9.31528C24.1785 10.3944 23.3178 12.3343 22.6822 12.3343C22.5697 12.3343 22.3181 12.2879 21.9804 12.2416C21.6295 12.2085 21.186 12.1622 20.6431 12.1622H14.1085C13.0624 12.1622 13.0426 11.6855 13.0426 11.4802C13.0426 10.6063 14.1217 11.3081 14.2343 9.61983C14.4263 6.72661 14.4395 7.0113 14.2806 4.13795C14.1681 1.70818 12.9631 2.95948 12.9631 1.83397C12.9631 0.867356 14.3005 1.02625 14.9493 1.02625H19.5242L19.5308 1.00639Z" fill="#F1B3C1"/>
<path d="M52.6604 4.78015C52.5214 4.90594 52.3758 5.00525 52.3758 5.21049C52.3758 5.41573 52.5479 5.48194 52.7068 5.56138C53.3556 5.81297 54.4877 6.66041 54.4877 7.99116C54.4877 9.58011 53.4218 11.5332 50.2307 11.5332C49.6878 11.5332 49.1978 11.52 48.7212 11.4868C48.2445 11.4736 47.7678 11.4537 47.2712 11.4537C46.735 11.4537 46.1722 11.467 45.6359 11.4868C45.0931 11.52 44.5568 11.5332 44.0007 11.5332C43.5107 11.5332 42.9546 11.2485 42.9546 10.6924C42.9546 9.7059 43.9874 10.7056 44.0801 8.0706L44.2589 3.49575C44.3515 1.09908 42.9877 2.19148 42.9877 1.09908C42.9877 0.496601 43.6365 0.211914 44.1331 0.211914C44.7223 0.211914 45.3115 0.245017 45.8942 0.258258C46.4834 0.291362 47.0726 0.324465 47.6552 0.324465C48.0392 0.324465 48.4034 0.291362 48.7675 0.258258C49.1316 0.245017 49.5156 0.211914 49.8798 0.211914C52.7862 0.211914 53.5344 1.59563 53.5344 2.82044C53.5344 3.54871 53.2298 4.32995 52.6604 4.79339V4.78015ZM48.0326 4.08498C48.0326 4.70732 47.9995 5.00525 48.4961 5.00525C49.4494 5.00525 49.6745 4.33657 49.6745 3.46264C49.6745 2.74762 49.4362 1.86045 48.5623 1.86045C47.973 1.86045 48.0392 2.33714 48.0392 2.80058V4.08498H48.0326ZM48.0326 7.96467C48.0326 9.80521 48.3372 9.85817 48.8271 9.85817C49.7341 9.85817 50.0519 9.23584 50.0519 8.41488C50.0519 7.44826 49.7672 6.58758 48.655 6.58758C48.165 6.58758 48.0525 6.83917 48.0326 7.17682V7.97129V7.96467Z" fill="#F1B3C1"/>
<path d="M55.0902 5.84598C55.0902 2.47608 57.7782 0.0926514 61.2408 0.0926514C65.6236 0.0926514 67.3119 3.95248 67.3119 6.00487C67.3119 9.42112 64.2929 11.6788 61.0488 11.6788C57.8047 11.6788 55.0902 9.22912 55.0902 5.84598ZM60.5059 2.46284C59.6187 2.46284 59.1685 3.38311 59.1685 4.16434C59.1685 5.51495 60.1219 9.31519 61.8366 9.31519C62.8032 9.31519 63.2203 8.47437 63.2203 7.61369C63.2203 6.17039 62.3597 2.46284 60.4993 2.46284H60.5059Z" fill="#F1B3C1"/>
<path d="M76.4285 4.14451C76.6205 4.3034 77.1303 4.76685 77.4149 4.76685C77.8122 4.76685 77.8254 4.11803 77.8254 3.84658C77.8254 3.44934 77.8122 2.76742 77.6864 2.40328C77.4613 1.7346 76.6205 1.97294 76.6205 1.11888C76.6205 0.0993037 78.2425 0.152269 78.9112 0.152269C79.5799 0.152269 81.341 0.0728211 81.341 1.17185C81.341 2.07887 80.5002 1.74122 80.2287 2.47611C80.0235 3.04548 80.0235 4.03196 80.0235 4.63444V8.75247C80.0235 9.4675 80.1162 11.6457 79.0569 11.6457C78.7391 11.6457 78.4676 11.4537 78.2293 11.2484L73.3168 6.84573C73.0917 6.64049 72.6812 6.25649 72.3502 6.25649C71.8602 6.25649 71.8404 7.28931 71.8404 7.62034C71.8404 8.06392 71.8602 8.65316 71.9529 9.06364C72.1913 10.0832 73.0321 9.69922 73.0321 10.4805C73.0321 11.5464 71.3968 11.6391 70.6487 11.6391C69.9005 11.6391 68.2785 11.5464 68.2785 10.5136C68.2785 9.67274 69.1987 10.0038 69.3576 8.99081C69.4702 8.30889 69.5033 7.30917 69.5033 6.59414C69.5033 5.44877 69.5033 4.29016 69.3312 3.14479C69.0796 1.55584 67.9342 2.17818 67.9342 1.22481C67.9342 0.0993036 70.0793 0.158889 70.7943 0.158889C71.7808 0.158889 71.9529 0.225096 72.668 0.860676L76.4351 4.16437L76.4285 4.14451Z" fill="#F1B3C1"/>
<path d="M88.3589 0.31779C90.4907 0.31779 90.7886 0 91.0468 0C91.9539 0 92.3313 1.55585 92.3313 2.25764C92.3313 2.78067 92.126 3.403 91.5037 3.403C90.2524 3.403 91.2653 1.88026 88.2463 1.88026C86.4852 1.88026 86.6574 2.19805 86.6574 4.02534C86.6574 4.94561 86.7037 4.97871 87.6769 4.97871C88.8819 4.97871 87.9815 3.21763 89.107 3.21763C90.0273 3.21763 90.0935 5.01182 90.0935 5.63416C90.0935 6.28298 89.9809 8.18972 89.0276 8.18972C88.0742 8.18972 89.0276 6.52132 87.4254 6.52132C86.7567 6.52132 86.7765 7.1238 86.7765 7.63359C86.7765 9.95081 86.9354 9.84488 88.6038 9.84488C91.8612 9.84488 90.9409 7.60711 92.2452 7.60711C92.755 7.60711 93.0065 8.17648 93.0065 8.62668C93.0065 9.70584 92.1459 11.6457 91.5103 11.6457C91.3977 11.6457 91.1462 11.5993 90.8151 11.553C90.4642 11.5199 90.0206 11.4736 89.4778 11.4736H82.9498C81.9038 11.4736 81.8839 10.9969 81.8839 10.7916C81.8839 9.9177 82.9631 10.6195 83.0756 8.93123C83.2676 6.03802 83.2808 6.3227 83.122 3.44935C83.0094 1.01958 81.8044 2.27088 81.8044 1.14537C81.8044 0.178757 83.1418 0.337652 83.7906 0.337652H88.3655L88.3589 0.31779Z" fill="#F1B3C1"/>
</g>
<defs>
<clipPath id="clip0_367_1633">
<rect width="93" height="12.4666" fill="white"/>
</clipPath>
</defs>
</svg>
