<svg width="147" height="13" viewBox="0 0 147 13" fill="none" xmlns="http://www.w3.org/2000/svg">
<g clip-path="url(#clip0_316_2088)">
<path d="M0.35998 2.48003C1.38998 2.21003 2.34998 2.14003 2.96998 2.10003C3.05998 2.10003 3.14998 2.16003 3.23998 2.27003C4.32998 1.98003 5.45998 1.87003 6.49998 1.87003C6.67998 1.87003 6.79998 2.05003 6.79998 2.23003C6.79998 2.46003 6.66998 2.61003 6.46998 2.63003C5.98998 2.67003 5.10998 2.76003 4.22998 2.89003C4.21998 3.03003 4.21998 3.23003 4.21998 3.47003C4.21998 3.65003 4.21998 4.17003 4.25998 4.91003C4.28998 5.79003 4.37998 6.89003 5.52998 6.91003C5.58998 6.91003 5.66998 6.91003 5.72998 6.90003C6.40998 6.85003 6.73998 6.72003 7.08998 6.59003C7.16998 6.56003 7.21998 6.55003 7.25998 6.55003C7.34998 6.55003 7.46998 6.61003 7.55998 6.77003C7.56998 6.82003 7.58998 6.87003 7.58998 6.91003C7.58998 7.01003 7.54998 7.22003 7.36998 7.29003C6.70998 7.54003 6.15998 7.68003 5.48998 7.68003C5.25998 7.68003 4.88998 7.64003 4.50998 7.45003C4.12998 7.63003 3.82998 7.71003 3.47998 7.75003H3.16998C1.42998 7.75003 0.68998 6.63003 0.55998 5.10003C0.52998 4.76003 0.52998 4.44003 0.52998 4.12003C0.52998 3.80003 0.52998 3.48003 0.53998 3.24003L0.32998 3.28003C0.32998 3.28003 0.27998 3.29003 0.24998 3.29003C0.10998 3.29003 -0.0200195 3.11003 -0.0200195 2.93003C-0.0200195 2.76003 0.14998 2.54003 0.33998 2.47003L0.35998 2.48003ZM1.46998 5.06003C1.50998 5.97003 1.95998 7.01003 3.10998 7.01003C3.33998 7.01003 3.55998 6.98003 3.81998 6.91003C3.52998 6.30003 3.46998 5.56003 3.41998 4.99003C3.38998 4.53003 3.38998 4.07003 3.38998 3.69003C3.38998 3.48003 3.37998 3.23003 3.37998 3.08003C3.17998 3.08003 3.06998 3.05003 2.98998 2.90003C2.54998 2.94003 1.84998 2.99003 1.41998 3.07003C1.41998 3.76003 1.41998 4.46003 1.46998 5.07003V5.06003ZM8.61998 11.61C8.38998 11.61 8.19998 11.47 8.18998 11.25C8.06998 9.20003 8.04998 7.15003 8.04998 5.11003C8.04998 4.19003 8.05998 3.04003 8.10998 1.90003C8.11998 1.34003 8.14998 0.820029 8.19998 0.430029C8.23998 0.210029 8.40998 0.0400293 8.62998 0.0300293C8.83998 0.0300293 9.04998 0.170029 9.05998 0.390029C8.97998 1.38003 8.95998 2.99003 8.93998 4.68003C9.58998 4.55003 10.63 4.46003 10.96 4.46003C11.21 4.46003 11.34 4.62003 11.34 4.85003C11.34 5.07003 11.2 5.27003 10.96 5.27003C10.67 5.27003 9.60998 5.39003 8.93998 5.48003C8.93998 7.68003 8.96998 9.94003 9.03998 11.21C9.03998 11.43 8.81998 11.6 8.60998 11.61H8.61998Z" fill="#868DA6"/>
<path d="M12.01 6.17997C14.45 5.85997 20.16 5.38997 22.25 5.38997C22.46 5.39997 22.61 5.56997 22.61 5.77997C22.61 6.02997 22.48 6.19997 22.25 6.19997C20.09 6.19997 14.35 6.68997 11.98 6.97997C11.79 6.96997 11.62 6.83997 11.62 6.61997C11.62 6.38997 11.79 6.21997 12.01 6.18997V6.17997ZM16.51 0.979966C17.51 0.759966 19.03 0.639966 19.82 0.599966C19.95 0.589966 20.08 0.589966 20.16 0.589966C20.36 0.589966 20.47 0.799966 20.47 0.979966C20.47 1.18997 20.33 1.32997 20.15 1.37997C19.64 1.40997 18.38 1.49997 17.26 1.67997V1.89997C17.34 2.96997 17.44 3.70997 18.9 3.70997C19.43 3.70997 19.98 3.65997 20.46 3.48997C20.52 3.45997 20.59 3.43997 20.64 3.43997C20.72 3.43997 20.85 3.49997 20.94 3.69997C20.95 3.73997 20.97 3.78997 20.97 3.79997C20.97 3.89997 20.91 4.09997 20.72 4.19997C20.33 4.32997 19.63 4.42997 19.11 4.46997H18.81C18.32 4.46997 17.9 4.40997 17.59 4.27997C17.01 4.50997 16.12 4.67997 15.5 4.67997C13.82 4.67997 13.47 3.49997 13.33 2.02997L13.02 2.06997C12.88 2.06997 12.75 1.89997 12.75 1.70997C12.75 1.54997 12.92 1.31997 13.11 1.24997C14.05 1.01997 15.4 0.909966 16.07 0.869966C16.14 0.869966 16.21 0.859966 16.27 0.859966C16.33 0.859966 16.43 0.899966 16.52 0.979966H16.51ZM13.71 11.48L14.39 10.84C15.42 9.88997 16.81 8.55997 17.6 7.55997C17.7 7.42997 17.89 7.33997 18.04 7.33997C18.13 7.33997 18.17 7.34997 18.2 7.37997C18.39 7.46997 18.39 7.68997 18.39 7.75997C18.39 7.82997 18.38 7.89997 18.34 7.95997C18.05 8.30997 17.66 8.76997 17.22 9.21997L18.55 9.78997C19.47 10.19 20.45 10.61 20.99 10.87C21.16 10.96 21.2 11.19 21.2 11.29C21.2 11.52 21.01 11.71 20.76 11.71C20.7 11.71 20.63 11.67 20.57 11.66C20.05 11.37 19.26 11.01 18.42 10.66C17.81 10.4 17.16 10.1 16.65 9.86997C15.83 10.68 14.99 11.49 14.4 11.98C14.31 12.07 14.18 12.15 14.02 12.15C13.8 12.15 13.59 12.03 13.59 11.81C13.59 11.78 13.58 11.64 13.71 11.5V11.48ZM14.21 2.02997C14.21 2.10997 14.22 2.15997 14.22 2.20997C14.25 2.58997 14.28 2.95997 14.45 3.28997C14.75 3.80997 15.2 3.88997 15.75 3.88997C16.15 3.84997 16.54 3.80997 16.84 3.72997C16.57 3.19997 16.45 2.61997 16.4 1.94997C16.4 1.89997 16.39 1.86997 16.39 1.81997C16.34 1.84997 16.27 1.84997 16.26 1.84997C16.17 1.84997 16.04 1.78997 15.93 1.66997C15.47 1.70997 14.79 1.76997 14.19 1.86997V2.03997L14.21 2.02997Z" fill="#868DA6"/>
<path d="M23.65 2.61001C24.81 2.38001 27.36 2.17001 29.17 2.12001C29.38 2.12001 29.5 2.33001 29.5 2.54001C29.5 2.74001 29.38 2.90001 29.17 2.92001C27.45 2.96001 24.84 3.18001 23.62 3.39001C23.45 3.38001 23.35 3.22001 23.35 3.05001C23.35 2.86001 23.47 2.65001 23.65 2.62001V2.61001ZM26.53 3.67001C27.45 3.67001 28.56 4.41001 28.56 5.40001C28.56 6.49001 27.79 7.43001 26.51 7.49001C25.41 7.49001 24.38 6.92001 24.38 5.71001C24.38 4.50001 25.41 3.67001 26.54 3.67001H26.53ZM25.08 0.91001C25.74 0.75001 27.15 0.65001 27.63 0.65001C27.85 0.65001 27.96 0.87001 27.96 1.04001C27.96 1.26001 27.86 1.42001 27.63 1.42001C27.23 1.42001 25.74 1.51001 25.06 1.68001C24.88 1.67001 24.76 1.51001 24.76 1.33001C24.76 1.14001 24.89 0.94001 25.08 0.91001ZM26.47 6.72001C27.24 6.68001 27.64 6.20001 27.64 5.46001C27.64 4.84001 27.24 4.42001 26.51 4.42001C26.43 4.42001 26.35 4.42001 26.3 4.43001C25.7 4.49001 25.27 5.00001 25.27 5.64001C25.27 6.41001 25.78 6.72001 26.47 6.72001ZM26.05 8.67001C26.25 8.67001 26.47 8.80001 26.51 8.98001C26.71 10.33 27.93 10.84 29.14 10.84C30.09 10.84 31.1 10.66 31.97 10.31C32.02 10.28 32.07 10.27 32.1 10.27C32.2 10.27 32.37 10.4 32.41 10.61C32.45 10.86 32.31 11.04 32.06 11.14C31.1 11.43 30.06 11.65 29.08 11.65C27.35 11.65 25.83 10.91 25.6 9.04001C25.6 8.83001 25.85 8.69001 26.06 8.68001L26.05 8.67001ZM31.4 8.54001C31.18 8.54001 31.01 8.38001 31.01 8.14001C30.98 7.97001 30.98 7.68001 30.98 7.28001V6.70001C30.98 6.51001 30.97 6.31001 30.97 6.12001C30.97 5.77001 30.97 5.39001 30.96 5.13001C30.96 4.69001 30.96 4.03001 30.97 3.23001C30.97 3.10001 30.98 2.83001 30.98 2.68001C30.99 2.38001 30.99 2.12001 30.99 1.87001C31 1.21001 31.03 0.69001 31.04 0.40001C31.08 0.19001 31.25 0.0200098 31.46 0.0100098C31.68 0.0100098 31.92 0.15001 31.93 0.37001C31.89 0.89001 31.84 2.87001 31.84 4.40001C32.48 4.30001 33.62 4.13001 33.96 4.13001C34.19 4.13001 34.34 4.30001 34.34 4.52001C34.34 4.73001 34.2 4.94001 33.96 4.94001C33.61 4.94001 32.52 5.07001 31.84 5.24001V6.88001C31.84 7.45001 31.85 7.89001 31.87 8.13001C31.87 8.36001 31.64 8.53001 31.4 8.55001V8.54001Z" fill="#868DA6"/>
<path d="M39.48 1.82002C39.65 1.82002 39.7801 1.90002 39.9001 1.99002C40.9701 1.72002 42.32 1.52002 43.57 1.52002C43.84 1.52002 43.95 1.75002 43.96 2.00002C43.84 2.83002 43.7801 4.13002 43.7401 5.20002C43.8801 5.26002 43.97 5.36002 44 5.50002C44.01 5.53002 44.01 5.55002 44.01 5.60002C44.01 5.76002 43.8901 6.02002 43.6501 6.06002C42.6201 6.35002 41.7 6.50002 41.21 6.50002C40.18 6.50002 39.4701 6.07002 39.2701 5.04002C39.1901 4.42002 39.05 3.09002 39.05 2.21002C39.05 2.03002 39.2701 1.83002 39.4901 1.82002H39.48ZM40.14 4.93002C40.2 5.50002 40.58 5.70002 41.12 5.71002C41.54 5.71002 42.17 5.62002 42.85 5.48002C42.85 5.29002 42.8801 5.04002 42.8801 4.83002C42.9101 4.02002 42.9401 3.13002 43.0401 2.37002C41.8701 2.42002 40.82 2.56002 39.96 2.76002C40 3.41002 40.0501 4.05002 40.1501 4.93002H40.14ZM41.5201 8.35002C41.6901 8.35002 41.92 8.47002 41.98 8.67002C42.16 9.76002 43.1001 10.75 44.2201 10.83C44.3401 10.84 44.4901 10.84 44.6101 10.84C45.5601 10.84 46.57 10.66 47.44 10.31C47.49 10.28 47.5301 10.27 47.5601 10.27C47.6601 10.27 47.85 10.41 47.87 10.61C47.9 10.86 47.7701 11.05 47.5201 11.14C46.5601 11.43 45.5401 11.65 44.5601 11.65C42.7401 11.65 41.3101 10.58 41.0801 8.71002C41.0801 8.48002 41.3101 8.36002 41.5401 8.35002H41.5201ZM46.87 8.54002C46.65 8.54002 46.4701 8.38002 46.4701 8.15002C46.4601 7.98002 46.46 7.69002 46.46 7.28002V6.70002C46.46 6.51002 46.4501 6.31002 46.4501 6.12002C46.4501 5.77002 46.45 5.39002 46.44 5.13002C46.44 4.69002 46.4401 4.03002 46.4501 3.23002C46.4501 3.06002 46.46 2.87002 46.46 2.68002C46.47 1.70002 46.49 0.820019 46.51 0.41002C46.55 0.20002 46.72 0.0300195 46.94 0.0200195C47.16 0.0200195 47.4 0.16002 47.41 0.38002C47.37 0.90002 47.32 2.49002 47.32 4.02002C47.96 3.92002 49.1 3.75002 49.44 3.75002C49.67 3.75002 49.82 3.92002 49.82 4.14002C49.82 4.35002 49.68 4.56002 49.44 4.56002C49.09 4.56002 48 4.69002 47.32 4.86002V6.89002C47.32 7.46002 47.33 7.90002 47.35 8.14002C47.35 8.37002 47.1201 8.54002 46.8801 8.56002L46.87 8.54002Z" fill="#868DA6"/>
<path d="M50.99 1.92001C51 1.72001 51.21 1.54001 51.42 1.52001C51.59 1.52001 51.86 1.69001 51.89 1.87001C51.86 2.03001 51.85 2.23001 51.85 2.44001C51.85 3.02001 51.89 4.16001 52.23 4.66001C52.52 5.06001 53.02 5.32001 53.76 5.32001C54.54 5.32001 55.36 5.18001 56.19 4.93001C56.25 4.89001 56.35 4.88001 56.4 4.88001C56.53 4.88001 56.65 4.96001 56.7 5.08001C56.71 5.12001 56.73 5.17001 56.73 5.21001C56.73 5.31001 56.68 5.51001 56.5 5.59001C55.6 5.99001 54.58 6.10001 53.63 6.10001C51.47 6.10001 50.98 4.64001 50.98 2.75001L51.01 1.93001L50.99 1.92001ZM53.29 8.02001C53.42 8.02001 53.58 8.07001 53.68 8.18001C54.93 7.91001 57.27 7.62001 58.53 7.62001C58.75 7.62001 58.93 7.82001 58.92 8.00001C58.91 8.19001 58.88 8.39001 58.86 8.61001C58.8 9.21001 58.72 9.78001 58.68 10.38C58.85 10.46 58.93 10.55 58.95 10.71C58.96 10.74 58.96 10.76 58.96 10.8C58.96 10.96 58.86 11.18 58.58 11.26C57.62 11.55 56.27 11.66 55.27 11.66C54.09 11.66 53.25 11.39 52.97 10.15C52.93 9.82001 52.85 8.78001 52.85 8.41001C52.85 8.24001 53.06 8.05001 53.29 8.03001V8.02001ZM53.82 9.56001C53.83 9.72001 53.86 9.94001 53.86 10.04C53.96 10.61 54.28 10.79 54.87 10.83C54.99 10.84 55.12 10.84 55.27 10.84C56.1 10.84 56.99 10.8 57.81 10.61C57.81 10.52 57.84 10.36 57.84 10.27C57.87 9.74001 57.9 9.18001 58.01 8.45001C56.81 8.49001 54.93 8.78001 53.78 8.98001L53.82 9.55001V9.56001ZM58.42 6.79001C58.2 6.79001 58.02 6.63001 58.02 6.40001C57.99 5.85001 57.98 4.57001 57.98 4.03001C57.98 3.35001 58.01 1.14001 58.07 0.40001C58.11 0.19001 58.26 0.0200098 58.49 0.0100098C58.71 0.0100098 58.94 0.15001 58.96 0.37001C58.92 0.92001 58.87 2.23001 58.87 3.45001C59.49 3.35001 60.65 3.16001 60.99 3.16001C61.21 3.16001 61.37 3.34001 61.37 3.56001C61.37 3.76001 61.21 3.96001 60.99 3.96001C60.64 3.96001 59.53 4.09001 58.87 4.27001C58.87 5.13001 58.88 5.93001 58.9 6.35001C58.9 6.58001 58.65 6.75001 58.43 6.77001L58.42 6.79001Z" fill="#868DA6"/>
<path d="M62.19 5.79996C64.53 5.43996 70.2801 5.05996 72.43 5.05996C72.64 5.05996 72.7901 5.26996 72.7901 5.45996C72.7901 5.66996 72.63 5.85996 72.43 5.85996C70.3101 5.85996 64.58 6.27996 62.16 6.58996C61.97 6.57996 61.8 6.44996 61.8 6.23996C61.8 6.04996 61.96 5.81996 62.19 5.79996ZM64.1901 7.47996C65.4401 7.27996 68.84 6.95996 70.38 6.95996C70.61 6.95996 70.81 7.11996 70.81 7.29996C70.81 7.33996 70.8101 7.35996 70.8001 7.41996C70.7001 7.87996 70.5801 8.24996 70.4401 8.76996C70.6001 8.84996 70.7 9.02996 70.7 9.16996C70.7 9.35996 70.58 9.55996 70.39 9.55996C69.57 9.55996 67.04 9.68996 65.46 9.86996C65.46 10.94 66.7001 10.95 67.4801 10.95C68.3401 10.95 69.6801 10.79 70.4701 10.52C70.5101 10.51 70.56 10.49 70.59 10.49C70.69 10.49 70.88 10.63 70.89 10.83C70.92 11.12 70.8 11.26 70.56 11.32C69.55 11.63 68.4301 11.75 67.3601 11.75C66.1 11.75 64.64 11.56 64.59 9.97996L64.3701 10.01C64.2401 10.01 64.1101 9.82996 64.1101 9.60996C64.1101 9.41996 64.2401 9.27996 64.4701 9.21996C65.3301 9.00996 68.03 8.82996 69.57 8.78996C69.66 8.42996 69.7601 8.03996 69.8001 7.77996C68.2801 7.81996 65.33 8.11996 64.24 8.29996C64.03 8.28996 63.89 8.08996 63.89 7.89996C63.89 7.67996 64.05 7.50996 64.2 7.47996H64.1901ZM67.5 0.219961C68.64 0.219961 69.92 0.929961 69.92 2.17996C69.92 3.21996 68.9201 4.28996 67.4001 4.39996C66.2801 4.36996 64.7901 3.90996 64.7201 2.58996C64.7201 1.05996 66.11 0.209961 67.5 0.209961V0.219961ZM67.24 3.63996C68.1 3.63996 68.9601 3.17996 69.0101 2.24996C69.0101 1.37996 68.2301 0.999961 67.4801 0.999961C66.6001 0.999961 65.6501 1.41996 65.6501 2.45996C65.6501 3.24996 66.56 3.63996 67.25 3.63996H67.24Z" fill="#868DA6"/>
<path d="M80.4 2.43003C81.73 2.43003 82.97 3.39003 82.97 4.77003C82.97 6.15003 81.92 7.38003 80.3 7.50003C78.95 7.46003 77.6 6.69003 77.6 5.21003C77.6 3.61003 78.81 2.43003 80.39 2.43003H80.4ZM80.22 6.72003C81.34 6.72003 82.05 5.94003 82.05 4.84003C82.05 4.38003 81.88 3.92003 81.54 3.62003H81.55C81.24 3.31003 80.82 3.19003 80.39 3.20003C79.25 3.20003 78.51 3.97003 78.49 5.12003C78.49 6.10003 79.26 6.72003 80.21 6.72003H80.22ZM86.24 11.6C86.02 11.6 85.81 11.46 85.78 11.24C85.73 9.93003 85.69 7.61003 85.69 5.38003C85.69 3.48003 85.72 1.56003 85.79 0.430029C85.83 0.210029 86.02 0.0400293 86.23 0.0300293C86.45 0.0300293 86.65 0.170029 86.66 0.390029C86.58 1.51003 86.56 3.47003 86.56 5.46003C86.56 7.67003 86.6 9.92003 86.65 11.21C86.65 11.43 86.46 11.6 86.23 11.61L86.24 11.6Z" fill="#868DA6"/>
<path d="M91.97 2.43003C93.3 2.43003 94.54 3.39003 94.54 4.77003C94.54 6.15003 93.49 7.38003 91.87 7.50003C90.52 7.46003 89.17 6.69003 89.17 5.21003C89.17 3.61003 90.38 2.43003 91.96 2.43003H91.97ZM91.79 6.77003C92.91 6.77003 93.67 5.92003 93.67 4.83003C93.67 4.37003 93.46 3.88003 93.14 3.58003C92.81 3.28003 92.39 3.14003 91.97 3.15003C90.79 3.15003 90.07 3.92003 90.05 5.11003C90.05 6.15003 90.93 6.76003 91.79 6.76003V6.77003ZM97.83 11.6C97.6 11.6 97.41 11.44 97.4 11.24C97.34 9.81003 97.3 7.18003 97.3 4.82003C96.52 4.88003 95.82 4.98003 95.4 5.07003C95.37 5.08003 95.36 5.08003 95.32 5.08003C95.18 5.08003 95.02 4.90003 95.02 4.72003C95.02 4.54003 95.21 4.40003 95.4 4.34003C95.86 4.28003 96.6 4.17003 97.3 4.11003C97.31 2.69003 97.35 1.30003 97.42 0.430029C97.46 0.210029 97.63 0.0400293 97.84 0.0300293C98.06 0.0300293 98.24 0.170029 98.26 0.390029C98.18 1.51003 98.16 3.47003 98.16 5.46003C98.16 7.67003 98.2 9.92003 98.25 11.21C98.25 11.43 98.07 11.6 97.85 11.61L97.83 11.6Z" fill="#868DA6"/>
<path d="M100.8 9.66003C103.24 9.30003 108.95 8.92003 111.04 8.92003C111.25 8.92003 111.4 9.11003 111.4 9.31003C111.4 9.52003 111.24 9.70003 111.04 9.70003C108.92 9.70003 103.19 10.12 100.77 10.45C100.59 10.44 100.41 10.33 100.41 10.1C100.41 9.89003 100.58 9.72003 100.8 9.66003ZM108.89 1.73003C108.89 1.91003 108.75 2.08003 108.53 2.08003C106.88 2.08003 104.93 2.34003 103.41 2.56003C103.4 2.69003 103.4 2.85003 103.4 3.04003C103.4 3.34003 103.41 3.65003 103.45 3.98003C103.62 5.27003 104.27 5.47003 105.4 5.47003C106.66 5.47003 108.16 5.18003 108.94 5.00003C109.13 5.03003 109.28 5.21003 109.28 5.39003C109.28 5.48003 109.28 5.65003 109.12 5.71003C108.22 6.06003 106.3 6.27003 105.35 6.27003C102.94 6.27003 102.5 4.88003 102.5 2.72003H102.34C102.29 2.75003 102.26 2.75003 102.25 2.75003C102.11 2.75003 102 2.57003 102 2.36003C102 2.19003 102.12 2.00003 102.34 1.96003C103.94 1.62003 106.53 1.28003 108.53 1.28003C108.75 1.28003 108.89 1.50003 108.89 1.72003V1.73003Z" fill="#868DA6"/>
<path d="M112.85 4.38C112.72 4.38 112.6 4.24 112.6 4.04C112.6 3.82 112.72 3.66 112.95 3.62C113.73 3.44 115.25 3.24 116.39 3.18C116.43 2.95 116.51 2.69 116.57 2.44C116.62 2.23 116.69 2.06 116.7 1.92C115.49 1.92 114.37 2.09 113.48 2.23L112.67 2.36C112.45 2.36 112.34 2.18 112.34 1.97C112.34 1.78 112.48 1.61 112.61 1.57C113.7 1.35 115.63 1.09 117.2 1.09C117.41 1.09 117.63 1.19 117.63 1.41V1.48C117.55 1.82 117.33 2.73 117.25 3.2C117.43 3.25 117.55 3.42 117.55 3.56C117.55 3.75 117.41 3.92 117.23 3.92C116.58 3.92 115.24 4.04 114.11 4.22C114.11 4.27 114.1 4.38 114.1 4.43V4.64C114.1 5.43 114.78 5.51 115.72 5.51C116.57 5.47 117.55 5.25 118.24 4.93C118.29 4.9 118.34 4.89 118.38 4.89C118.5 4.89 118.65 4.94 118.74 5.16C118.75 5.2 118.77 5.25 118.77 5.28C118.77 5.4 118.74 5.54 118.56 5.62C117.57 6.02 116.51 6.3 115.45 6.3C114.51 6.3 113.2 6.07 113.2 4.68V4.37L112.82 4.4L112.85 4.38ZM114.89 7.38C116.09 7.17 119.08 6.89 120.58 6.89C120.81 6.89 121 7.05 121 7.23C121 7.27 121 7.29 120.99 7.35L120.83 8C120.77 8.26 120.69 8.51 120.64 8.78C120.82 8.83 120.91 9 120.91 9.13C120.91 9.35 120.81 9.52 120.59 9.52C119.91 9.52 117.73 9.64 116.2 9.79C116.2 10.62 116.72 10.84 117.47 10.91C117.68 10.92 117.89 10.94 118.11 10.94C118.82 10.94 119.83 10.84 120.67 10.54C120.81 10.49 121.02 10.55 121.09 10.87C121.13 11.08 120.97 11.29 120.77 11.34C119.72 11.65 118.73 11.73 118.01 11.73C116.75 11.73 115.37 11.48 115.29 9.94C115.12 9.97 115.11 9.97 115.08 9.97C114.92 9.97 114.82 9.79 114.82 9.61C114.82 9.38 114.94 9.25 115.18 9.19C115.97 9.02 118.31 8.83 119.73 8.79C119.83 8.44 119.93 8.13 120 7.74C118.57 7.74 116.07 8.06 114.93 8.25C114.73 8.24 114.63 8.03 114.63 7.83C114.63 7.63 114.76 7.47 114.89 7.41V7.38ZM120.61 6.12C120.38 6.12 120.21 5.99 120.19 5.74C120.18 5.48 120.16 5.18 120.16 4.84C120.16 4.55 120.16 4.28 120.15 4.1C120.15 3.76 120.15 3.42 120.16 3.07C120.16 2.03 120.19 0.95 120.24 0.39C120.28 0.17 120.45 0 120.66 0C120.89 0 121.13 0.13 121.14 0.35C121.08 1.12 121.06 2.04 121.06 2.82C121.06 3.22 121.06 3.56 121.05 3.82C121.05 4.3 121.06 5.21 121.08 5.69C121.08 5.94 120.83 6.09 120.61 6.11V6.12Z" fill="#868DA6"/>
<path d="M123.98 2.72001C125.06 2.46001 126.42 2.30001 127.82 2.25001C128.12 2.25001 128.28 2.48001 128.28 2.67001V2.75001C127.94 4.36001 127.62 6.51001 127.54 8.26001C127.53 8.47001 127.28 8.66001 127.03 8.66001C126.78 8.66001 126.68 8.45001 126.68 8.22001C126.74 6.65001 127.03 4.54001 127.38 3.11001C126.02 3.14001 125.07 3.29001 124.07 3.53001C124.04 3.54001 123.99 3.54001 123.97 3.54001C123.85 3.54001 123.68 3.35001 123.68 3.12001C123.68 2.94001 123.88 2.77001 123.99 2.72001H123.98ZM128.62 4.86001C129.09 4.77001 129.61 4.68001 130.28 4.63001C130.29 3.28001 130.33 1.86001 130.4 0.92001C130.41 0.72001 130.65 0.53001 130.88 0.53001C131.09 0.53001 131.28 0.67001 131.3 0.89001C131.24 2.02001 131.21 3.72001 131.21 5.47001C131.21 7.37001 131.24 9.42001 131.29 10.71C131.28 10.93 131.08 11.1 130.87 11.14C130.64 11.14 130.43 10.96 130.4 10.75C130.34 9.42001 130.28 7.42001 130.28 5.42001C129.67 5.48001 129.03 5.56001 128.59 5.64001C128.38 5.63001 128.25 5.48001 128.25 5.28001C128.25 5.10001 128.43 4.93001 128.61 4.86001H128.62ZM133.03 11.58C132.81 11.58 132.6 11.44 132.57 11.22C132.52 9.92001 132.49 7.66001 132.49 5.45001C132.49 3.53001 132.52 1.56001 132.58 0.41001C132.63 0.19001 132.84 0.0200098 133.04 0.0100098C133.25 0.0100098 133.47 0.15001 133.48 0.37001C133.43 1.10001 133.39 2.45001 133.38 3.67001C133.35 4.98001 133.34 5.98001 133.34 6.44001C133.34 8.03001 133.35 9.61001 133.47 11.19C133.47 11.41 133.24 11.58 133.03 11.59V11.58Z" fill="#868DA6"/>
<path d="M135.51 9.74996C136.19 9.64996 137.24 9.55996 138.38 9.44996C138.38 8.62996 138.41 7.59996 138.44 7.23996C138.48 7.01996 138.66 6.83996 138.86 6.81996C139.07 6.81996 139.3 6.94996 139.32 7.16996C139.27 7.50996 139.26 8.54996 139.26 9.33996C140.08 9.26996 141.03 9.20996 141.85 9.15996C141.85 8.36996 141.88 7.45996 141.91 7.11996C141.96 6.89996 142.13 6.69996 142.33 6.68996C142.54 6.68996 142.77 6.82996 142.79 7.04996C142.75 7.35996 142.74 8.33996 142.74 9.08996C143.72 9.03996 144.78 9.00996 145.77 9.00996C145.98 9.00996 146.13 9.17996 146.13 9.38996C146.13 9.59996 145.97 9.78996 145.77 9.78996C143.65 9.78996 137.92 10.19 135.5 10.54C135.29 10.53 135.14 10.38 135.14 10.15C135.14 9.92996 135.3 9.75996 135.53 9.72996L135.51 9.74996ZM140.69 1.45996C141.34 1.45996 142.02 1.65996 142.55 2.09996C143.1 2.55996 143.39 3.18996 143.38 3.82996C143.38 5.52996 141.91 6.50996 140.32 6.50996C138.73 6.50996 137.71 5.68996 137.69 4.28996C137.69 2.90996 138.76 1.63996 140.24 1.49996C140.38 1.48996 140.54 1.46996 140.68 1.46996L140.69 1.45996ZM140.4 5.70996C141.51 5.70996 142.4 5.04996 142.44 3.87996C142.44 2.82996 141.67 2.31996 140.67 2.31996C139.54 2.31996 138.64 2.92996 138.6 4.16996C138.6 5.21996 139.42 5.71996 140.39 5.71996L140.4 5.70996Z" fill="#868DA6"/>
</g>
<defs>
<clipPath id="clip0_316_2088">
<rect width="146.12" height="12.13" fill="white"/>
</clipPath>
</defs>
</svg>
