<svg width="150" height="13" viewBox="0 0 150 13" fill="none" xmlns="http://www.w3.org/2000/svg">
<g clip-path="url(#clip0_316_2046)">
<path d="M0 2.91006C0.01 2.69006 0.23 2.56006 0.46 2.55006C0.59 2.55006 0.75 2.60006 0.86 2.72006C2 2.47006 3.46 2.24006 4.63 2.24006C4.9 2.24006 4.99 2.47006 5.01 2.71006C4.92 3.58006 4.84 5.34006 4.8 6.52006C4.94 6.57006 5.02 6.70006 5.06 6.88006V6.93006C5.06 7.09006 4.97 7.28006 4.71 7.37006C3.88 7.63006 2.92 7.83006 2.02 7.83006C1.06 7.83006 0.43 7.41006 0.23 6.40006C0.17 5.98006 0.1 5.26006 0.06 4.57006C0.02 4.18006 0.02 3.79006 0.01 3.58006V2.92006L0 2.91006ZM1.1 6.20006C1.2 6.78006 1.46 7.02006 2.02 7.03006C2.64 7.03006 3.29 6.93006 3.93 6.73006C3.93 5.66006 3.98 3.92006 4.1 3.08006C3.01 3.12006 1.8 3.27006 0.9 3.51006C0.87 4.37006 0.96 5.58006 1.09 6.20006H1.1ZM7.88 11.6401C7.66 11.6401 7.44 11.5101 7.42 11.2801C7.42 10.9901 7.41 10.6801 7.39 10.3401C7.36 9.11006 7.33 7.48006 7.33 5.84006C7.33 3.80006 7.38 1.67006 7.43 0.460059C7.47 0.240059 7.66 0.0700586 7.88 0.0600586C8.1 0.0600586 8.3 0.200059 8.31 0.420059C8.25 1.41006 8.22 3.06006 8.19 4.80006C8.83 4.70006 9.97 4.50006 10.35 4.50006C10.57 4.50006 10.73 4.67006 10.73 4.85006C10.73 5.08006 10.57 5.29006 10.35 5.31006C10 5.31006 8.83 5.48006 8.19 5.58006C8.19 7.75006 8.23 9.97006 8.29 11.2401C8.29 11.4601 8.08 11.6301 7.86 11.6401H7.88Z" fill="#868DA6"/>
<path d="M11.56 6.31999C14 6.00999 19.71 5.53999 21.8 5.53999C22.01 5.53999 22.16 5.71999 22.16 5.92999C22.16 6.13999 22 6.32999 21.8 6.32999C19.64 6.32999 13.9 6.83999 11.53 7.10999C11.32 7.09999 11.17 6.93998 11.17 6.71999C11.17 6.50998 11.34 6.33999 11.56 6.31999ZM14.04 8.08999C14.18 8.08999 14.34 8.11999 14.46 8.24999C15.75 8.02999 18.37 7.77999 19.67 7.77999C19.93 7.77999 20.02 7.99999 20.03 8.23998C19.93 9.04998 19.86 9.75998 19.82 10.49C19.96 10.55 20.04 10.65 20.08 10.79C20.09 10.83 20.09 10.84 20.09 10.87C20.09 11.03 19.97 11.26 19.73 11.32C18.53 11.68 16.86 11.75 15.6 11.75C14.51 11.69 13.94 11.31 13.73 10.24C13.69 9.92999 13.61 8.84999 13.61 8.46999C13.61 8.25999 13.83 8.08999 14.04 8.08999ZM16.67 0.359985H16.85C18.03 0.359985 19.26 1.13999 19.26 2.42999C19.26 3.46999 18.28 4.58999 16.76 4.70999C15.62 4.67999 14.17 4.09999 14.12 2.80999C14.12 1.46999 15.21 0.519985 16.49 0.379985C16.54 0.379985 16.61 0.369985 16.67 0.369985V0.359985ZM14.57 9.61999C14.57 9.77999 14.57 10.02 14.61 10.13C14.73 10.7 15.04 10.87 15.64 10.91C15.74 10.92 15.91 10.92 16.08 10.92C16.99 10.92 17.99 10.83 18.95 10.66C18.95 10.62 18.96 10.5 18.96 10.45C19 9.87999 19.04 9.28999 19.14 8.59999C18 8.64999 15.73 8.81999 14.53 9.03999L14.57 9.60999V9.61999ZM16.61 3.93999C17.48 3.93999 18.3 3.40999 18.34 2.47999C18.34 2.08999 18.17 1.74999 17.88 1.47999C17.57 1.22999 17.19 1.13999 16.8 1.14999C15.88 1.14999 15.02 1.66999 15.02 2.66999C15.02 3.47999 15.89 3.92999 16.61 3.92999V3.93999Z" fill="#868DA6"/>
<path d="M23.13 5.80997C25.47 5.44997 31.22 5.06997 33.37 5.06997C33.58 5.06997 33.73 5.27997 33.73 5.46997C33.73 5.67997 33.57 5.86997 33.37 5.86997C31.25 5.86997 25.52 6.28997 23.1 6.59997C22.91 6.58997 22.74 6.45997 22.74 6.24997C22.74 6.05997 22.9 5.82997 23.13 5.80997ZM25.13 7.48997C26.38 7.28997 29.78 6.96997 31.32 6.96997C31.55 6.96997 31.75 7.12997 31.75 7.30997C31.75 7.34997 31.75 7.36997 31.74 7.42997C31.64 7.88997 31.52 8.25997 31.38 8.77997C31.54 8.85997 31.64 9.03997 31.64 9.17997C31.64 9.36997 31.52 9.56997 31.33 9.56997C30.51 9.56997 27.98 9.69997 26.4 9.87997C26.4 10.95 27.64 10.96 28.42 10.96C29.28 10.96 30.62 10.8 31.41 10.53C31.45 10.52 31.5 10.5 31.53 10.5C31.63 10.5 31.82 10.64 31.83 10.84C31.86 11.13 31.74 11.27 31.5 11.33C30.49 11.64 29.37 11.76 28.3 11.76C27.04 11.76 25.58 11.57 25.53 9.98997L25.31 10.02C25.18 10.02 25.05 9.83997 25.05 9.61997C25.05 9.42997 25.18 9.28997 25.41 9.22997C26.27 9.01997 28.97 8.83997 30.51 8.79997C30.6 8.43997 30.7 8.04997 30.74 7.78997C29.22 7.82997 26.27 8.12997 25.18 8.30997C24.97 8.29997 24.83 8.09997 24.83 7.90997C24.83 7.68997 24.99 7.51997 25.14 7.48997H25.13ZM28.43 0.229971C29.57 0.229971 30.85 0.939971 30.85 2.18997C30.85 3.22997 29.85 4.29997 28.33 4.40997C27.21 4.37997 25.72 3.91997 25.65 2.59997C25.65 1.06997 27.04 0.219971 28.43 0.219971V0.229971ZM28.17 3.64997C29.03 3.64997 29.89 3.18997 29.94 2.25997C29.94 1.38997 29.16 1.00997 28.41 1.00997C27.53 1.00997 26.58 1.42997 26.58 2.46997C26.58 3.25997 27.49 3.64997 28.18 3.64997H28.17Z" fill="#868DA6"/>
<path d="M41.54 1.33C42.06 1.33 42.7 1.54 43.16 1.88C43.63 2.26 43.93 2.8 43.91 3.39C43.91 4.64 42.9 5.76 41.41 5.87C40.16 5.84 38.87 5.23 38.87 3.82C38.87 2.31 40.09 1.34 41.52 1.34L41.54 1.33ZM41.3 5.08C42.31 5.08 42.99 4.47 42.99 3.43C42.99 2.61 42.39 2.13 41.55 2.13C40.56 2.13 39.82 2.64 39.81 3.7C39.81 4.61 40.43 5.08 41.31 5.08H41.3ZM41.44 7.35C42.64 7.14 45.63 6.86 47.13 6.86C47.36 6.86 47.55 7.02 47.55 7.2C47.55 7.24 47.55 7.26 47.54 7.32L47.38 7.97C47.32 8.23 47.24 8.5 47.19 8.78C47.37 8.83 47.46 9 47.46 9.13C47.46 9.35 47.36 9.52 47.13 9.52C46.45 9.52 44.27 9.64 42.74 9.79C42.74 10.71 43.26 10.87 44.01 10.93C44.22 10.94 44.43 10.96 44.65 10.96C45.36 10.96 46.37 10.86 47.21 10.56C47.35 10.51 47.56 10.57 47.63 10.89C47.67 11.1 47.51 11.31 47.3 11.36C46.25 11.67 45.26 11.75 44.54 11.75C43.28 11.75 41.9 11.56 41.82 9.93C41.65 9.96 41.64 9.96 41.61 9.96C41.45 9.96 41.35 9.78 41.35 9.6C41.35 9.37 41.47 9.24 41.71 9.18C42.5 9.01 44.84 8.82 46.26 8.78C46.36 8.43 46.45 8.09 46.53 7.7C45.1 7.7 42.6 8.03 41.46 8.21C41.27 8.2 41.16 7.99 41.16 7.79C41.16 7.59 41.29 7.43 41.42 7.37L41.44 7.35ZM47.1 6.1C46.85 6.1 46.7 5.94 46.68 5.72C46.67 5.47 46.65 5.08 46.65 4.67C45.84 4.75 45 4.86 44.6 4.94C44.39 4.93 44.22 4.76 44.22 4.56C44.22 4.38 44.4 4.18 44.62 4.13C45.09 4.03 45.83 3.91 46.63 3.86V2.87L46.64 2.51C45.83 2.59 44.98 2.69 44.59 2.78C44.38 2.77 44.21 2.6 44.21 2.4C44.21 2.19 44.39 2.01 44.61 1.97C45.06 1.85 45.86 1.75 46.66 1.7C46.66 1.62 46.67 1.41 46.67 1.31C46.68 0.96 46.68 0.63 46.71 0.4C46.74 0.18 46.9 0.01 47.14 0C47.35 0 47.58 0.14 47.6 0.32C47.52 1.14 47.52 2.04 47.52 2.82C47.52 3.2 47.52 3.56 47.51 3.81C47.51 4.29 47.52 5.2 47.54 5.68C47.54 5.94 47.31 6.08 47.08 6.1H47.1Z" fill="#868DA6"/>
<path d="M51.04 1.89999C51.18 1.89999 51.31 1.90999 51.44 2.03999C52.51 1.76999 53.88 1.57999 55.12 1.57999C55.39 1.57999 55.48 1.79999 55.5 2.03999C55.38 2.87999 55.32 4.19999 55.28 5.27999C55.41 5.32999 55.51 5.44999 55.55 5.61999V5.66999C55.55 5.82999 55.45 6.05999 55.19 6.12999C54.18 6.43999 53.15 6.56999 52.62 6.56999C51.61 6.52999 50.98 6.09999 50.81 5.09999C50.75 4.48999 50.63 3.13999 50.63 2.26999C50.63 2.08999 50.81 1.90999 51.05 1.90999L51.04 1.89999ZM51.69 4.97999C51.75 5.55999 52.16 5.72999 52.66 5.72999C53.09 5.72999 53.7 5.67999 54.39 5.51999C54.39 5.43999 54.4 5.22999 54.4 5.12999C54.44 4.28999 54.48 3.22999 54.58 2.43999C53.41 2.47999 52.38 2.60999 51.51 2.79999C51.56 3.63999 51.64 4.53999 51.68 4.96999L51.69 4.97999ZM53.17 8.35999C53.36 8.35999 53.57 8.48999 53.63 8.67999C53.82 9.76999 54.76 10.76 55.87 10.84C55.97 10.85 56.14 10.85 56.25 10.85C57.15 10.85 58.27 10.63 59.1 10.32C59.14 10.31 59.22 10.28 59.23 10.28C59.33 10.28 59.48 10.44 59.53 10.63C59.52 10.86 59.43 11.06 59.18 11.16C58.22 11.47 57.2 11.65 56.2 11.65C54.37 11.65 52.96 10.58 52.72 8.70999C52.72 8.51999 52.97 8.35999 53.19 8.34999L53.17 8.35999ZM58.66 8.54999C58.43 8.54999 58.26 8.37999 58.24 8.15999C58.2 7.73999 58.2 6.32999 58.2 4.95999C57.39 5.02999 56.61 5.12999 56.18 5.22999C56.15 5.23999 56.12 5.23999 56.1 5.23999C55.94 5.23999 55.8 5.04999 55.8 4.81999C55.8 4.62999 55.98 4.42999 56.18 4.38999C56.64 4.29999 57.41 4.18999 58.21 4.13999C58.21 3.88999 58.22 3.84999 58.22 3.61999V2.88999C57.4 2.94999 56.6 3.06999 56.18 3.15999C56.15 3.16999 56.12 3.16999 56.1 3.16999C55.94 3.16999 55.8 2.97999 55.8 2.77999C55.8 2.57999 55.97 2.37999 56.18 2.33999C56.65 2.23999 57.43 2.14999 58.23 2.08999V1.62999C58.24 1.15999 58.26 0.61999 58.28 0.38999C58.33 0.17999 58.5 -0.0100098 58.7 -0.0100098C58.92 -0.0100098 59.17 0.11999 59.18 0.33999C59.12 1.07999 59.09 3.53999 59.09 5.48999C59.09 6.66999 59.1 7.70999 59.12 8.09999C59.12 8.32999 58.87 8.49999 58.65 8.51999L58.66 8.54999Z" fill="#868DA6"/>
<path d="M68.63 1.53002C69.19 1.53002 69.81 1.78002 70.29 2.17002C70.77 2.61002 71.06 3.20002 71.04 3.79002C71.04 5.04002 70.04 6.30002 68.56 6.42002C67.27 6.38002 66.01 5.61002 66.01 4.21002C66.01 2.73002 67.15 1.53002 68.62 1.53002H68.63ZM68.54 5.62002C69.49 5.59002 70.1 4.87002 70.1 3.84002C70.1 2.93002 69.42 2.36002 68.59 2.36002C67.56 2.36002 66.98 3.10002 66.95 4.11002C66.95 5.02002 67.61 5.62002 68.54 5.62002ZM68.63 8.33002C68.8 8.33002 69.05 8.46002 69.1 8.66002C69.29 9.76002 70.2 10.77 71.34 10.82C71.52 10.83 71.67 10.85 71.8 10.85C72.74 10.85 73.7 10.64 74.57 10.3C74.61 10.29 74.65 10.27 74.66 10.27C74.78 10.27 74.93 10.41 74.98 10.61C74.97 10.84 74.88 11.05 74.62 11.14C74.11 11.31 73.54 11.43 72.97 11.54C72.37 11.63 71.93 11.66 71.67 11.64C69.88 11.64 68.42 10.56 68.19 8.70002C68.19 8.49002 68.42 8.34002 68.65 8.32002L68.63 8.33002ZM74.1 8.53002C73.87 8.53002 73.71 8.36002 73.7 8.14002C73.69 7.97002 73.69 7.68002 73.69 7.27002C73.69 7.09002 73.68 6.89002 73.68 6.69002V6.12002C73.68 5.76002 73.68 5.38002 73.67 5.12002C73.67 4.68002 73.67 4.02002 73.68 3.24002C73.68 3.06002 73.69 2.88002 73.69 2.68002C73.7 1.70002 73.73 0.820019 73.77 0.42002C73.8 0.20002 73.95 0.0300195 74.17 0.0200195C74.39 0.0200195 74.63 0.16002 74.64 0.34002C74.58 1.16002 74.55 3.79002 74.55 5.76002C74.55 6.84002 74.56 7.76002 74.58 8.13002C74.58 8.36002 74.35 8.55002 74.11 8.55002L74.1 8.53002Z" fill="#868DA6"/>
<path d="M80.12 1.53002C80.63 1.53002 81.25 1.78002 81.73 2.17002C82.2 2.61002 82.5 3.20002 82.48 3.79002C82.48 5.05002 81.47 6.30002 80 6.42002C78.7 6.38002 77.45 5.63002 77.45 4.22002C77.45 2.71002 78.62 1.53002 80.12 1.53002ZM79.98 5.62002C80.94 5.59002 81.55 4.87002 81.55 3.84002C81.55 2.96002 80.9 2.36002 80.03 2.36002C79.98 2.36002 79.86 2.36002 79.8 2.37002C78.97 2.51002 78.41 3.23002 78.4 4.11002C78.4 5.02002 79.05 5.62002 79.99 5.62002H79.98ZM80.2 8.33002C80.37 8.33002 80.62 8.46002 80.67 8.66002C80.86 9.76002 81.77 10.77 82.91 10.82C83.09 10.83 83.24 10.85 83.37 10.85C84.31 10.85 85.28 10.64 86.14 10.3C86.18 10.29 86.22 10.27 86.23 10.27C86.36 10.27 86.5 10.4 86.57 10.61C86.56 10.86 86.47 11.04 86.19 11.14C85.68 11.31 85.11 11.43 84.54 11.54C83.94 11.63 83.5 11.66 83.24 11.64C81.43 11.64 79.98 10.56 79.77 8.70002C79.77 8.49002 80 8.34002 80.21 8.32002L80.2 8.33002ZM85.67 8.53002C85.44 8.53002 85.29 8.36002 85.28 8.14002C85.23 7.74002 85.23 6.63002 85.23 5.36002C84.42 5.41002 83.61 5.52002 83.2 5.61002C82.99 5.60002 82.84 5.44002 82.84 5.25002C82.84 5.06002 83.01 4.85002 83.23 4.81002C83.69 4.72002 84.43 4.60002 85.23 4.55002C85.23 3.95002 85.24 3.21002 85.26 2.68002C84.47 2.74002 83.61 2.86002 83.21 2.97002C83.01 2.96002 82.85 2.79002 82.85 2.59002C82.85 2.37002 83.02 2.17002 83.24 2.14002C83.66 2.06002 84.47 1.96002 85.29 1.88002C85.29 1.78002 85.3 1.55002 85.3 1.45002C85.31 1.07002 85.3 0.620019 85.34 0.42002C85.37 0.20002 85.53 0.0300195 85.76 0.0200195C85.97 0.0200195 86.2 0.16002 86.22 0.34002C86.16 1.16002 86.13 3.79002 86.13 5.76002C86.13 6.84002 86.14 7.76002 86.16 8.13002C86.16 8.36002 85.93 8.55002 85.69 8.55002L85.67 8.53002Z" fill="#868DA6"/>
<path d="M91.52 2.44004C92.85 2.44004 94.09 3.40004 94.09 4.78004C94.09 6.16004 93.04 7.39004 91.42 7.51004C90.07 7.47004 88.72 6.70004 88.72 5.22004C88.72 3.62004 89.93 2.44004 91.51 2.44004H91.52ZM91.34 6.73004C92.46 6.73004 93.17 5.95004 93.17 4.85004C93.17 4.39004 93 3.93004 92.66 3.63004H92.67C92.36 3.32004 91.94 3.20004 91.51 3.21004C90.37 3.21004 89.63 3.98004 89.61 5.13004C89.61 6.11004 90.38 6.73004 91.33 6.73004H91.34ZM97.36 11.61C97.14 11.61 96.93 11.47 96.9 11.25C96.85 9.94004 96.81 7.62004 96.81 5.39004C96.81 3.49004 96.84 1.57004 96.91 0.440039C96.95 0.220039 97.14 0.0500391 97.35 0.0400391C97.57 0.0400391 97.77 0.180039 97.78 0.400039C97.7 1.52004 97.68 3.48004 97.68 5.47004C97.68 7.68004 97.72 9.93004 97.77 11.22C97.77 11.44 97.58 11.61 97.35 11.62L97.36 11.61Z" fill="#868DA6"/>
<path d="M104.22 6.66001C104.22 6.66001 104.21 6.49001 104.38 6.36001C105.58 5.44001 107.19 3.94001 108.12 3.05001C107.08 3.10001 105.69 3.28001 104.88 3.44001C104.7 3.43001 104.59 3.22001 104.59 3.02001C104.59 2.84001 104.71 2.67001 104.9 2.64001C105.99 2.43001 108.02 2.26001 108.88 2.22001C109.2 2.22001 109.28 2.53001 109.28 2.70001C109.28 2.76001 109.27 2.86001 109.23 2.93001C108.9 3.29001 108.32 3.91001 107.71 4.49001L110.22 5.76001C110.34 5.82001 110.36 6.03001 110.36 6.09001C110.36 6.15001 110.32 6.27001 110.27 6.36001C110.19 6.46001 110.09 6.50001 109.94 6.50001C109.85 6.50001 109.8 6.49001 109.74 6.46001L108.78 5.97001C108.26 5.68001 107.65 5.36001 107.08 5.09001C106.34 5.78001 105.56 6.47001 104.91 6.96001C104.86 7.02001 104.78 7.05001 104.65 7.05001C104.55 7.05001 104.4 6.99001 104.31 6.92001C104.26 6.86001 104.21 6.74001 104.21 6.66001H104.22ZM105.7 0.84001C106.35 0.65001 107.64 0.58001 108.13 0.58001C108.3 0.59001 108.42 0.83001 108.42 1.01001C108.42 1.18001 108.33 1.39001 108.15 1.39001C107.69 1.39001 106.38 1.48001 105.68 1.65001C105.5 1.64001 105.39 1.44001 105.39 1.27001C105.39 1.09001 105.51 0.87001 105.7 0.84001ZM106.99 11.48C107.26 11.3 107.55 11.08 107.86 10.87C108.94 10.13 110.19 9.26001 111.12 8.40001C110.14 8.44001 108.47 8.69001 107.26 8.88001C107.07 8.87001 106.95 8.65001 106.95 8.45001C106.95 8.28001 107.11 8.11001 107.29 8.07001C108.77 7.84001 110.67 7.61001 111.92 7.58001C112.26 7.58001 112.43 8.09001 112.27 8.29001C111.97 8.67001 111.35 9.21001 110.59 9.81001C110.73 9.87001 110.98 9.99001 111.12 10.07C111.86 10.45 112.62 10.81 113.14 11.11C113.26 11.2 113.27 11.38 113.27 11.44C113.27 11.53 113.24 11.62 113.19 11.71C113.11 11.81 112.98 11.85 112.85 11.85C112.77 11.85 112.73 11.84 112.68 11.81C112.2 11.52 111.47 11.16 110.68 10.76L109.89 10.37C109.4 10.75 108.73 11.22 108.27 11.55L107.53 12.1C107.45 12.14 107.34 12.18 107.2 12.18C107.08 12.18 106.98 12.14 106.93 12.1C106.87 12.05 106.84 11.93 106.84 11.85C106.84 11.77 106.88 11.59 107 11.47L106.99 11.48ZM112.06 6.46001C111.84 6.46001 111.66 6.32001 111.66 6.08001C111.63 5.51001 111.62 4.34001 111.62 3.82001C111.62 3.17001 111.65 1.15001 111.7 0.41001C111.74 0.19001 111.91 0.0200098 112.13 0.0100098C112.35 0.0100098 112.59 0.15001 112.6 0.37001C112.56 0.93001 112.51 2.12001 112.51 3.32001C113.15 3.20001 114.29 3.03001 114.63 3.03001C114.86 3.03001 115.01 3.21001 115.01 3.42001C115.01 3.63001 114.87 3.82001 114.63 3.82001C114.28 3.82001 113.19 3.98001 112.51 4.12001C112.51 4.93001 112.52 5.64001 112.54 6.04001C112.54 6.27001 112.31 6.43001 112.07 6.44001L112.06 6.46001Z" fill="#868DA6"/>
<path d="M118.48 2.42995C119.77 2.42995 120.99 3.46995 120.99 4.79995C120.99 6.12995 119.92 7.40995 118.34 7.52995C117 7.48995 115.64 6.70995 115.64 5.23995C115.64 3.59995 116.89 2.42995 118.49 2.42995H118.48ZM118.23 6.72995C119.32 6.72995 120.08 5.95995 120.08 4.84995C120.08 3.86995 119.42 3.22995 118.43 3.22995C117.26 3.22995 116.56 3.91995 116.54 5.12995C116.54 6.11995 117.26 6.73995 118.23 6.73995V6.72995ZM123.71 11.6399C123.5 11.6399 123.29 11.4999 123.27 11.2799C123.23 10.0299 123.17 7.94995 123.17 5.84995C123.17 3.74995 123.22 1.67995 123.29 0.469946C123.33 0.249946 123.52 0.0799463 123.73 0.0699463C123.95 0.0699463 124.15 0.209946 124.16 0.429946C124.1 1.41995 124.07 3.06995 124.06 4.80995C124.7 4.70995 125.83 4.50995 126.21 4.50995C126.44 4.50995 126.59 4.67995 126.59 4.85995C126.59 5.08995 126.45 5.29995 126.21 5.31995C125.86 5.31995 124.7 5.48995 124.06 5.58995C124.06 7.75995 124.09 9.97995 124.15 11.2499C124.15 11.4699 123.94 11.6399 123.72 11.6499L123.71 11.6399Z" fill="#868DA6"/>
<path d="M127.3 8.66006C127.79 8.56006 128.37 8.48006 129 8.39006L130.1 8.22006C130.1 8.09006 130.11 7.80006 130.11 7.66006C130.14 7.13006 130.14 6.52006 130.16 6.20006C128.85 6.08006 127.95 5.20006 127.95 4.05006C127.95 2.59006 129.09 1.48006 130.55 1.48006C131.72 1.48006 132.92 2.39006 132.92 3.64006C132.92 4.72006 132.22 5.80006 131.03 6.12006C131.03 6.22006 131.02 6.39006 131.02 6.54006C131.01 6.97006 130.97 7.58006 130.97 8.11006C132.26 7.94006 133.34 7.88006 134.01 7.86006C134.24 7.86006 134.37 8.03006 134.37 8.25006C134.37 8.47006 134.24 8.63006 134.01 8.64006C132.58 8.69006 129.16 9.11006 127.29 9.45006C127.26 9.46006 127.23 9.46006 127.2 9.46006C127.04 9.46006 126.9 9.29006 126.9 9.07006C126.9 8.86006 127.06 8.71006 127.29 8.65006L127.3 8.66006ZM130.36 5.42006C131.4 5.42006 132.02 4.71006 132.02 3.69006C132.02 2.81006 131.33 2.26006 130.49 2.26006C129.5 2.26006 128.88 2.98006 128.87 3.95006C128.87 4.82006 129.53 5.42006 130.37 5.42006H130.36ZM135.43 11.6401C135.2 11.6401 134.98 11.5101 134.96 11.2801C134.96 10.9901 134.95 10.6801 134.93 10.3401C134.9 9.11006 134.86 7.48006 134.86 5.84006C134.86 3.75006 134.91 1.65006 134.96 0.460059C135.01 0.240059 135.18 0.0700586 135.43 0.0600586C135.64 0.0600586 135.83 0.200059 135.85 0.420059C135.79 1.41006 135.76 3.06006 135.75 4.80006C136.39 4.70006 137.39 4.50006 137.77 4.50006C138 4.50006 138.15 4.67006 138.15 4.85006C138.15 5.08006 138.01 5.29006 137.77 5.31006C137.42 5.31006 136.39 5.48006 135.75 5.58006C135.75 7.75006 135.78 9.97006 135.84 11.2401C135.84 11.4601 135.63 11.6301 135.42 11.6401H135.43Z" fill="#868DA6"/>
<path d="M138.96 9.75997C139.64 9.65997 140.69 9.56997 141.83 9.45997C141.83 8.63997 141.86 7.60997 141.89 7.24997C141.93 7.02997 142.11 6.84997 142.31 6.82997C142.52 6.82997 142.75 6.95997 142.77 7.17997C142.72 7.51997 142.71 8.55997 142.71 9.34997C143.53 9.27997 144.48 9.21997 145.3 9.16997C145.3 8.37997 145.33 7.46997 145.36 7.12997C145.41 6.90997 145.58 6.70997 145.78 6.69997C145.99 6.69997 146.22 6.83997 146.24 7.05997C146.2 7.36997 146.19 8.34997 146.19 9.09997C147.17 9.04997 148.23 9.01997 149.22 9.01997C149.43 9.01997 149.58 9.18997 149.58 9.39997C149.58 9.60997 149.42 9.79997 149.22 9.79997C147.1 9.79997 141.37 10.2 138.95 10.55C138.74 10.54 138.59 10.39 138.59 10.16C138.59 9.93997 138.75 9.76997 138.98 9.73997L138.96 9.75997ZM144.13 1.46997C144.78 1.46997 145.46 1.66997 145.99 2.10997C146.54 2.56997 146.83 3.19997 146.82 3.83997C146.82 5.53997 145.35 6.51997 143.76 6.51997C142.17 6.51997 141.15 5.69997 141.13 4.29997C141.13 2.91997 142.2 1.64997 143.68 1.50997C143.82 1.49997 143.98 1.47997 144.12 1.47997L144.13 1.46997ZM143.84 5.71997C144.95 5.71997 145.84 5.05997 145.88 3.88997C145.88 2.83997 145.11 2.32997 144.11 2.32997C142.98 2.32997 142.08 2.93997 142.04 4.17997C142.04 5.22997 142.86 5.72997 143.83 5.72997L143.84 5.71997Z" fill="#868DA6"/>
</g>
<defs>
<clipPath id="clip0_316_2046">
<rect width="149.56" height="12.18" fill="white"/>
</clipPath>
</defs>
</svg>
