<svg width="135" height="12" viewBox="0 0 135 12" fill="none" xmlns="http://www.w3.org/2000/svg">
<g clip-path="url(#clip0_316_2074)">
<path d="M5.56 1.46997C6.21 1.46997 6.89 1.66997 7.42 2.10997C7.97 2.56997 8.26 3.19997 8.25 3.83997C8.25 5.16997 7.3 6.18997 5.9 6.47997C5.86 6.98997 5.83 8.46997 5.83 9.23997C7.4 9.13997 9.04 9.04997 10.63 9.04997C10.84 9.04997 10.99 9.21997 10.99 9.42997C10.99 9.63997 10.83 9.82997 10.63 9.82997C8.51 9.82997 2.78 10.23 0.36 10.58C0.15 10.57 0 10.42 0 10.19C0 9.96997 0.17 9.79997 0.39 9.76997C1.43 9.62997 3.16 9.46997 4.97 9.30997C4.97 8.48997 4.98 7.01997 5.02 6.51997C3.47 6.42997 2.59 5.59997 2.58 4.29997C2.58 2.91997 3.65 1.64997 5.13 1.50997C5.27 1.49997 5.43 1.47997 5.57 1.47997L5.56 1.46997ZM5.28 5.71997C6.38 5.71997 7.28 5.05997 7.32 3.88997C7.32 2.83997 6.55 2.32997 5.55 2.32997C4.42 2.32997 3.52 2.93997 3.48 4.17997C3.48 5.22997 4.3 5.72997 5.27 5.72997L5.28 5.71997Z" fill="#868DA6"/>
<path d="M11.9599 5.40999C14.2999 5.01999 20.0499 4.65999 22.1999 4.65999C22.4099 4.65999 22.5599 4.85999 22.5599 5.05999C22.5599 5.27999 22.3999 5.45999 22.1999 5.45999C20.0799 5.45999 14.3499 5.87999 11.9299 6.19999C11.7399 6.18999 11.5699 6.05999 11.5699 5.83999C11.5699 5.62999 11.7299 5.43999 11.9599 5.40999ZM20.0599 2.66999C20.1799 2.66999 20.3499 2.78999 20.3699 2.97999C20.3699 3.23999 20.2899 3.43999 20.0299 3.49999C18.9599 3.79999 17.8699 3.87999 16.7799 3.93999C16.5899 3.93999 16.3999 3.93999 16.2299 3.92999C14.5799 3.83999 13.7599 2.69999 13.6399 1.11999C13.6499 0.92999 13.8699 0.73999 14.0699 0.73999C14.2399 0.73999 14.5499 0.83999 14.5499 1.03999C14.5499 2.19999 15.0799 3.02999 16.2899 3.10999C16.4699 3.11999 16.6699 3.11999 16.8499 3.11999C17.8799 3.11999 18.9799 3.02999 19.9299 2.68999C19.9699 2.67999 20.0199 2.65999 20.0499 2.65999L20.0599 2.66999ZM14.2899 7.30999C15.5399 7.11999 18.9399 6.78999 20.4799 6.78999C20.7099 6.78999 20.9099 6.94999 20.9099 7.12999C20.9099 7.16999 20.9099 7.18999 20.8999 7.24999C20.7999 7.70999 20.6799 8.16999 20.5399 8.68999C20.6999 8.76999 20.7999 8.94999 20.7999 9.08999C20.7999 9.28999 20.6799 9.47999 20.4899 9.47999C19.6699 9.47999 17.1399 9.60999 15.5599 9.78999C15.5599 10.89 16.7899 10.96 17.5799 10.96C18.4399 10.96 19.7799 10.8 20.5699 10.53C20.6099 10.52 20.6599 10.5 20.6899 10.5C20.7899 10.5 20.9799 10.64 20.9899 10.84C21.0199 11.13 20.8999 11.27 20.6599 11.33C19.6499 11.64 18.5299 11.76 17.4599 11.76C16.1999 11.76 14.7399 11.51 14.6899 9.89999L14.4699 9.92999C14.3399 9.92999 14.2099 9.74999 14.2099 9.52999C14.2099 9.32999 14.3399 9.19999 14.5699 9.13999C15.4299 8.92999 18.1299 8.74999 19.6699 8.70999C19.7599 8.34999 19.8599 7.86999 19.8999 7.60999C18.3799 7.64999 15.4299 7.94999 14.3399 8.12999C14.1299 8.11999 13.9899 7.91999 13.9899 7.72999C13.9899 7.50999 14.1499 7.33999 14.2999 7.30999H14.2899Z" fill="#868DA6"/>
<path d="M23.88 8.59002C25.8 8.24002 29.22 7.84002 30.6 7.80002C30.82 7.80002 30.98 7.96002 30.98 8.18002C30.98 8.39002 30.84 8.57002 30.6 8.58002C29.17 8.62002 25.75 9.05002 23.88 9.37002C23.85 9.40002 23.8 9.40002 23.78 9.40002C23.64 9.40002 23.51 9.22002 23.51 9.01002C23.51 8.81002 23.67 8.66002 23.89 8.59002H23.88ZM27.09 1.47002C28.27 1.47002 29.47 2.39002 29.47 3.63002C29.47 4.87002 28.52 6.10002 27.03 6.20002C25.76 6.16002 24.51 5.43002 24.51 4.04002C24.51 2.65002 25.65 1.47002 27.1 1.47002H27.09ZM26.92 5.41002C27.95 5.41002 28.54 4.69002 28.54 3.68002C28.54 2.80002 27.89 2.25002 27.03 2.25002C26.05 2.25002 25.42 2.98002 25.39 3.94002C25.39 4.81002 26.07 5.41002 26.91 5.41002H26.92ZM32.28 11.61C32.05 11.61 31.85 11.47 31.82 11.26C31.73 9.21002 31.7 7.16002 31.7 5.11002C31.7 4.19002 31.71 3.04002 31.75 1.90002C31.76 1.35002 31.79 0.830019 31.83 0.44002C31.86 0.21002 32.06 0.0400195 32.29 0.0200195C32.5 0.0200195 32.71 0.16002 32.72 0.38002C32.64 1.50002 32.6 3.47002 32.6 5.48002C32.6 7.68002 32.64 9.91002 32.7 11.2C32.7 11.42 32.49 11.6 32.27 11.6L32.28 11.61Z" fill="#868DA6"/>
<path d="M41.99 1.53002C42.55 1.53002 43.17 1.78002 43.65 2.17002C44.13 2.61002 44.42 3.20002 44.4 3.79002C44.4 5.04002 43.4 6.30002 41.92 6.42002C40.63 6.38002 39.37 5.61002 39.37 4.21002C39.37 2.73002 40.51 1.53002 41.98 1.53002H41.99ZM41.9 5.62002C42.85 5.59002 43.46 4.87002 43.46 3.84002C43.46 2.93002 42.78 2.36002 41.95 2.36002C40.92 2.36002 40.34 3.10002 40.31 4.11002C40.31 5.02002 40.97 5.62002 41.9 5.62002ZM41.99 8.33002C42.16 8.33002 42.41 8.46002 42.46 8.66002C42.65 9.76002 43.56 10.77 44.7 10.82C44.88 10.83 45.03 10.85 45.16 10.85C46.1 10.85 47.06 10.64 47.93 10.3C47.97 10.29 48.01 10.27 48.02 10.27C48.14 10.27 48.29 10.41 48.34 10.61C48.33 10.84 48.24 11.05 47.98 11.14C47.47 11.31 46.9 11.43 46.33 11.54C45.73 11.63 45.29 11.66 45.03 11.64C43.24 11.64 41.78 10.56 41.55 8.70002C41.55 8.49002 41.78 8.34002 42.01 8.32002L41.99 8.33002ZM47.46 8.53002C47.23 8.53002 47.07 8.36002 47.06 8.14002C47.05 7.97002 47.05 7.68002 47.05 7.27002C47.05 7.09002 47.04 6.89002 47.04 6.69002V6.12002C47.04 5.76002 47.04 5.38002 47.03 5.12002C47.03 4.68002 47.03 4.02002 47.04 3.24002C47.04 3.06002 47.05 2.88002 47.05 2.68002C47.06 1.70002 47.09 0.820019 47.13 0.42002C47.16 0.20002 47.31 0.0300195 47.53 0.0200195C47.75 0.0200195 47.98 0.16002 48 0.34002C47.94 1.16002 47.91 3.79002 47.91 5.76002C47.91 6.84002 47.92 7.76002 47.94 8.13002C47.94 8.36002 47.71 8.55002 47.47 8.55002L47.46 8.53002Z" fill="#868DA6"/>
<path d="M53.4801 1.53002C53.9901 1.53002 54.6101 1.78002 55.0901 2.17002C55.5601 2.61002 55.8601 3.20002 55.8401 3.79002C55.8401 5.05002 54.8301 6.30002 53.3601 6.42002C52.0601 6.38002 50.8101 5.63002 50.8101 4.22002C50.8101 2.71002 51.9801 1.53002 53.4801 1.53002ZM53.3401 5.62002C54.3001 5.59002 54.9101 4.87002 54.9101 3.84002C54.9101 2.96002 54.2601 2.36002 53.3901 2.36002C53.3401 2.36002 53.2201 2.36002 53.1601 2.37002C52.3301 2.51002 51.7701 3.23002 51.7601 4.11002C51.7601 5.02002 52.4101 5.62002 53.3501 5.62002H53.3401ZM53.5601 8.33002C53.7301 8.33002 53.9801 8.46002 54.0301 8.66002C54.2201 9.76002 55.1301 10.77 56.2701 10.82C56.4501 10.83 56.6001 10.85 56.7301 10.85C57.6701 10.85 58.6401 10.64 59.5001 10.3C59.5401 10.29 59.5801 10.27 59.5901 10.27C59.7201 10.27 59.8601 10.4 59.9301 10.61C59.9201 10.86 59.8301 11.04 59.5501 11.14C59.0401 11.31 58.4701 11.43 57.9001 11.54C57.3001 11.63 56.8601 11.66 56.6001 11.64C54.7901 11.64 53.3401 10.56 53.1301 8.70002C53.1301 8.49002 53.3601 8.34002 53.5701 8.32002L53.5601 8.33002ZM59.0301 8.53002C58.8001 8.53002 58.6501 8.36002 58.6401 8.14002C58.5901 7.74002 58.5901 6.63002 58.5901 5.36002C57.7801 5.41002 56.9701 5.52002 56.5601 5.61002C56.3501 5.60002 56.2001 5.44002 56.2001 5.25002C56.2001 5.06002 56.3701 4.85002 56.5901 4.81002C57.0501 4.72002 57.7901 4.60002 58.5901 4.55002C58.5901 3.95002 58.6001 3.21002 58.6201 2.68002C57.8301 2.74002 56.9701 2.86002 56.5701 2.97002C56.3701 2.96002 56.2101 2.79002 56.2101 2.59002C56.2101 2.37002 56.3801 2.17002 56.6001 2.14002C57.0201 2.06002 57.8301 1.96002 58.6501 1.88002C58.6501 1.78002 58.6601 1.55002 58.6601 1.45002C58.6701 1.07002 58.6601 0.620019 58.7001 0.42002C58.7301 0.20002 58.8901 0.0300195 59.1201 0.0200195C59.3301 0.0200195 59.5601 0.16002 59.5801 0.34002C59.5201 1.16002 59.4901 3.79002 59.4901 5.76002C59.4901 6.84002 59.5001 7.76002 59.5201 8.13002C59.5201 8.36002 59.2901 8.55002 59.0501 8.55002L59.0301 8.53002Z" fill="#868DA6"/>
<path d="M62.14 5.80997C64.48 5.44997 70.23 5.06997 72.38 5.06997C72.59 5.06997 72.74 5.27997 72.74 5.46997C72.74 5.67997 72.58 5.86997 72.38 5.86997C70.26 5.86997 64.53 6.28997 62.11 6.59997C61.92 6.58997 61.75 6.45997 61.75 6.24997C61.75 6.05997 61.91 5.82997 62.14 5.80997ZM64.14 7.48997C65.39 7.28997 68.79 6.96997 70.33 6.96997C70.56 6.96997 70.76 7.12997 70.76 7.30997C70.76 7.34997 70.76 7.36997 70.75 7.42997C70.65 7.88997 70.53 8.25997 70.39 8.77997C70.55 8.85997 70.65 9.03997 70.65 9.17997C70.65 9.36997 70.53 9.56997 70.34 9.56997C69.52 9.56997 66.99 9.69997 65.41 9.87997C65.41 10.95 66.65 10.96 67.43 10.96C68.29 10.96 69.63 10.8 70.42 10.53C70.46 10.52 70.51 10.5 70.54 10.5C70.64 10.5 70.83 10.64 70.84 10.84C70.87 11.13 70.75 11.27 70.51 11.33C69.5 11.64 68.38 11.76 67.31 11.76C66.05 11.76 64.59 11.57 64.54 9.98997L64.32 10.02C64.19 10.02 64.06 9.83997 64.06 9.61997C64.06 9.42997 64.19 9.28997 64.42 9.22997C65.28 9.01997 67.98 8.83997 69.52 8.79997C69.61 8.43997 69.71 8.04997 69.75 7.78997C68.23 7.82997 65.28 8.12997 64.19 8.30997C63.98 8.29997 63.84 8.09997 63.84 7.90997C63.84 7.68997 64 7.51997 64.15 7.48997H64.14ZM67.44 0.229971C68.58 0.229971 69.86 0.939971 69.86 2.18997C69.86 3.22997 68.86 4.29997 67.34 4.40997C66.22 4.37997 64.73 3.91997 64.66 2.59997C64.66 1.06997 66.05 0.219971 67.44 0.219971V0.229971ZM67.18 3.64997C68.04 3.64997 68.9 3.18997 68.95 2.25997C68.95 1.38997 68.17 1.00997 67.42 1.00997C66.54 1.00997 65.59 1.42997 65.59 2.46997C65.59 3.25997 66.5 3.64997 67.19 3.64997H67.18Z" fill="#868DA6"/>
<path d="M78.04 1.83003C78.21 1.83003 78.34 1.91003 78.46 2.00003C79.53 1.73003 80.88 1.53003 82.13 1.53003C82.4 1.53003 82.51 1.76003 82.52 2.01003C82.4 2.84003 82.34 4.14003 82.3 5.21003C82.44 5.27003 82.53 5.37003 82.56 5.51003C82.57 5.54003 82.57 5.56003 82.57 5.61003C82.57 5.77003 82.45 6.03003 82.21 6.07003C81.18 6.36003 80.26 6.51003 79.77 6.51003C78.74 6.51003 78.03 6.08003 77.83 5.05003C77.75 4.43003 77.61 3.10003 77.61 2.22003C77.61 2.04003 77.83 1.84003 78.05 1.83003H78.04ZM78.7 4.94003C78.76 5.51003 79.14 5.71003 79.68 5.72003C80.1 5.72003 80.73 5.63003 81.41 5.49003C81.41 5.30003 81.44 5.05003 81.44 4.84003C81.47 4.03003 81.5 3.14003 81.6 2.38003C80.43 2.43003 79.38 2.57003 78.52 2.77003C78.56 3.42003 78.61 4.06003 78.71 4.94003H78.7ZM80.08 8.36003C80.25 8.36003 80.48 8.48003 80.54 8.68003C80.72 9.77003 81.66 10.76 82.78 10.84C82.9 10.85 83.05 10.85 83.17 10.85C84.12 10.85 85.13 10.67 86 10.32C86.05 10.29 86.09 10.28 86.12 10.28C86.22 10.28 86.41 10.42 86.43 10.62C86.46 10.87 86.33 11.06 86.08 11.15C85.12 11.44 84.1 11.66 83.12 11.66C81.3 11.66 79.87 10.59 79.64 8.72003C79.64 8.49003 79.87 8.37003 80.1 8.36003H80.08ZM85.42 8.55003C85.2 8.55003 85.02 8.39003 85.02 8.16003C85.01 7.99003 85.01 7.70003 85.01 7.29003V6.71003C85.01 6.52003 85 6.32003 85 6.13003C85 5.78003 85 5.40003 84.99 5.14003C84.99 4.70003 84.99 4.04003 85 3.24003C85 3.07003 85.01 2.88003 85.01 2.69003C85.02 1.71003 85.04 0.830029 85.06 0.420029C85.1 0.210029 85.27 0.0400293 85.49 0.0300293C85.71 0.0300293 85.95 0.170029 85.96 0.390029C85.92 0.910029 85.87 2.50003 85.87 4.03003C86.51 3.93003 87.65 3.76003 87.99 3.76003C88.22 3.76003 88.37 3.93003 88.37 4.15003C88.37 4.36003 88.23 4.57003 87.99 4.57003C87.64 4.57003 86.55 4.70003 85.87 4.87003V6.90003C85.87 7.47003 85.88 7.91003 85.9 8.15003C85.9 8.38003 85.67 8.55003 85.43 8.57003L85.42 8.55003Z" fill="#868DA6"/>
<path d="M89.93 2.16995C90.1 2.16995 90.37 2.30995 90.4 2.50995C90.37 2.75995 90.35 3.27995 90.35 3.81995C90.35 4.29995 90.38 4.80995 90.43 5.20995C90.6 6.21995 91.27 6.90995 92.35 6.90995C93.14 6.90995 94.21 6.71995 94.92 6.42995C95 6.37995 95.06 6.36995 95.14 6.36995C95.26 6.36995 95.35 6.44995 95.41 6.58995C95.42 6.62995 95.44 6.67995 95.44 6.68995C95.44 6.80995 95.39 6.99995 95.22 7.11995C94.44 7.50995 93.13 7.71995 92.2 7.71995C90.58 7.71995 89.8 6.75995 89.55 5.23995C89.51 4.88995 89.5 4.42995 89.5 4.01995C89.5 3.65995 89.51 3.27995 89.51 3.00995C89.51 2.82995 89.52 2.66995 89.52 2.56995C89.52 2.35995 89.72 2.18995 89.92 2.17995L89.93 2.16995ZM97.06 11.6399C96.84 11.6399 96.63 11.5099 96.62 11.2799L96.59 10.0999C96.55 8.91995 96.51 7.37995 96.51 5.84995C96.51 3.80995 96.57 1.67995 96.63 0.469946C96.67 0.249946 96.85 0.0799463 97.07 0.0699463C97.3 0.0699463 97.49 0.239946 97.5 0.429946C97.43 1.36995 97.41 2.79995 97.4 4.36995C98.02 4.26995 99.17 4.05995 99.56 4.05995C99.78 4.05995 99.92 4.22995 99.92 4.44995C99.92 4.66995 99.78 4.87995 99.56 4.87995C99.18 4.87995 98.03 5.05995 97.4 5.17995C97.4 7.43995 97.43 9.90995 97.49 11.2499C97.49 11.4699 97.28 11.6399 97.06 11.6499V11.6399Z" fill="#868DA6"/>
<path d="M111.36 9.42995C111.36 9.63995 111.2 9.82995 111 9.82995C108.88 9.82995 103.15 10.23 100.73 10.58C100.52 10.57 100.37 10.42 100.37 10.19C100.37 9.96995 100.54 9.79995 100.76 9.76995C101.81 9.60995 103.72 9.42995 105.61 9.30995C105.61 8.55995 105.61 7.25995 105.65 6.61995C105.58 6.61995 105.45 6.62995 105.4 6.62995C105.24 6.63995 105.1 6.63995 105 6.63995C103.93 6.63995 103.31 6.21995 103.12 5.16995C103.07 4.58995 102.91 1.85995 102.91 1.79995C102.92 1.57995 103.13 1.41995 103.35 1.40995C103.56 1.40995 103.79 1.53995 103.79 1.71995V2.04995C103.79 2.23995 103.79 2.78995 103.83 3.44995C104.39 3.27995 106.66 2.96995 107.82 2.92995C107.83 2.70995 107.83 2.43995 107.83 2.22995C107.86 1.83995 107.87 1.50995 107.9 1.34995C107.93 1.11995 108.13 0.959951 108.36 0.949951C108.57 0.949951 108.8 1.06995 108.81 1.28995C108.71 1.81995 108.67 3.61995 108.67 4.78995C108.67 5.14995 108.67 5.51995 108.68 5.70995C108.67 5.99995 108.56 6.19995 108.29 6.28995C107.98 6.34995 107.29 6.45995 106.55 6.51995C106.51 7.09995 106.51 8.47995 106.51 9.19995C108.28 9.09995 110.05 9.02995 111.01 9.02995C111.22 9.02995 111.37 9.19995 111.37 9.40995L111.36 9.42995ZM103.92 4.59995C103.93 4.73995 103.95 4.86995 103.97 4.97995C104.11 5.71995 104.45 5.83995 105.14 5.83995C105.97 5.83995 106.88 5.77995 107.75 5.57995C107.75 5.23995 107.76 4.43995 107.78 3.72995C106.64 3.77995 104.5 4.02995 103.88 4.21995L103.92 4.59995Z" fill="#868DA6"/>
<path d="M112.03 7.48002C112.65 6.63002 113.53 5.14002 114.27 3.85002C114.62 3.24002 114.96 2.68002 115.22 2.25002C115.28 2.12002 115.49 2.03002 115.68 2.03002C115.76 2.03002 115.78 2.03002 115.8 2.04002C116.02 2.14002 116.03 2.36002 116.03 2.46002C116.03 2.52002 116.02 2.58002 115.99 2.63002L115.43 3.59002L114.66 4.90002C115.67 5.58002 116.73 6.36002 117.44 6.89002C117.61 7.02002 117.61 7.23002 117.61 7.29002C117.61 7.39002 117.58 7.45002 117.56 7.50002C117.48 7.68002 117.37 7.75002 117.2 7.75002C117.12 7.75002 117.04 7.72002 116.99 7.69002L115.96 6.92002C115.43 6.52002 114.8 6.05002 114.22 5.63002C113.65 6.61002 113.12 7.49002 112.75 8.00002C112.67 8.10002 112.53 8.14002 112.41 8.14002C112.19 8.14002 111.93 8.05002 111.93 7.81002C111.93 7.77002 111.92 7.62002 112.03 7.47002V7.48002ZM116.79 4.37002C117.28 4.27002 117.95 4.14002 118.67 4.10002C118.7 2.90002 118.72 1.76002 118.79 0.94002C118.8 0.74002 119.05 0.55002 119.27 0.55002C119.48 0.55002 119.67 0.69002 119.69 0.91002C119.61 2.04002 119.59 3.76002 119.59 5.51002C119.59 7.39002 119.63 9.44002 119.68 10.72C119.67 10.94 119.47 11.11 119.26 11.15C119.04 11.15 118.82 10.97 118.79 10.76C118.73 9.36002 118.66 7.02002 118.66 4.88002C117.87 4.93002 117.31 5.04002 116.84 5.13002C116.81 5.13002 116.8 5.14002 116.78 5.14002C116.57 5.14002 116.4 4.95002 116.4 4.74002C116.4 4.57002 116.59 4.41002 116.79 4.36002V4.37002ZM121.42 11.6C121.2 11.6 120.99 11.46 120.96 11.24C120.91 9.95002 120.87 7.70002 120.87 5.49002C120.87 3.55002 120.9 1.58002 120.97 0.42002C121.02 0.20002 121.23 0.0300195 121.43 0.0200195C121.65 0.0200195 121.85 0.16002 121.86 0.38002C121.81 1.16002 121.77 2.36002 121.76 3.68002C121.76 4.01002 121.75 4.56002 121.75 4.85002C121.74 5.58002 121.74 6.14002 121.74 6.45002C121.74 8.04002 121.75 9.62002 121.86 11.2C121.86 11.42 121.65 11.59 121.43 11.6H121.42Z" fill="#868DA6"/>
<path d="M123.89 9.75997C124.57 9.65997 125.62 9.56997 126.76 9.45997C126.76 8.63997 126.79 7.60997 126.82 7.24997C126.86 7.02997 127.04 6.84997 127.24 6.82997C127.45 6.82997 127.68 6.95997 127.7 7.17997C127.65 7.51997 127.64 8.55997 127.64 9.34997C128.46 9.27997 129.41 9.21997 130.23 9.16997C130.23 8.37997 130.26 7.46997 130.29 7.12997C130.34 6.90997 130.51 6.70997 130.71 6.69997C130.92 6.69997 131.15 6.83997 131.17 7.05997C131.13 7.36997 131.12 8.34997 131.12 9.09997C132.1 9.04997 133.16 9.01997 134.15 9.01997C134.36 9.01997 134.51 9.18997 134.51 9.39997C134.51 9.60997 134.35 9.79997 134.15 9.79997C132.03 9.79997 126.3 10.2 123.88 10.55C123.67 10.54 123.52 10.39 123.52 10.16C123.52 9.93997 123.68 9.76997 123.91 9.73997L123.89 9.75997ZM129.06 1.46997C129.71 1.46997 130.39 1.66997 130.92 2.10997C131.47 2.56997 131.76 3.19997 131.75 3.83997C131.75 5.53997 130.28 6.51997 128.69 6.51997C127.1 6.51997 126.08 5.69997 126.06 4.29997C126.06 2.91997 127.13 1.64997 128.61 1.50997C128.75 1.49997 128.91 1.47997 129.05 1.47997L129.06 1.46997ZM128.78 5.71997C129.89 5.71997 130.78 5.05997 130.82 3.88997C130.82 2.83997 130.05 2.32997 129.05 2.32997C127.92 2.32997 127.02 2.93997 126.98 4.17997C126.98 5.22997 127.8 5.72997 128.77 5.72997L128.78 5.71997Z" fill="#868DA6"/>
</g>
<defs>
<clipPath id="clip0_316_2074">
<rect width="134.5" height="11.77" fill="white"/>
</clipPath>
</defs>
</svg>
